<?xml version="1.0" encoding="UTF-8"?>
<svg version="1.1" xmlns="http://www.w3.org/2000/svg" width="821" height="810">
<path d="M0 0 C270.93 0 541.86 0 821 0 C821 267.3 821 534.6 821 810 C550.07 810 279.14 810 0 810 C0 542.7 0 275.4 0 0 Z " fill="#FEFEFE" transform="translate(0,0)"/>
<path d="M0 0 C270.93 0 541.86 0 821 0 C821 267.3 821 534.6 821 810 C550.07 810 279.14 810 0 810 C0 542.7 0 275.4 0 0 Z M192 109 C191.39446289 109.45681152 190.78892578 109.91362305 190.16503906 110.38427734 C179.15663044 118.74580689 168.13875523 127.48215197 158.54296875 137.45703125 C156.9170203 139.0829797 155.20462186 140.52925078 153.4375 142 C143.23803347 150.81043412 134.27495725 161.40638862 126 172 C125.52240234 172.60505371 125.04480469 173.21010742 124.55273438 173.83349609 C96.32043926 209.66882212 74.23951309 250.26678357 61 294 C60.77119141 294.75120117 60.54238281 295.50240234 60.30664062 296.27636719 C53.64124366 318.45200605 49.71838109 341.02694555 47 364 C46.89324951 364.86294678 46.78649902 365.72589355 46.67651367 366.61499023 C45.66739351 375.89655941 45.79921706 385.23808612 45.8125 394.5625 C45.81376892 395.47549866 45.81503784 396.38849731 45.81634521 397.3291626 C46.05406526 487.21288129 78.08036629 577.64821361 141.0546875 643.13671875 C142.17752824 644.24708348 143.30712128 645.35068841 144.4453125 646.4453125 C146.13544042 648.13544042 147.65101131 649.91944649 149.1875 651.75 C153.5643972 656.82366783 158.55173927 661.22168726 163.53613281 665.68017578 C164.83752748 666.8535146 166.11946236 668.04835645 167.3984375 669.24609375 C175.12644966 676.43340881 183.54497469 682.70442311 192 689 C192.59296875 689.4448877 193.1859375 689.88977539 193.796875 690.34814453 C225.86788939 714.31710651 262.7255809 732.41304816 301 744 C301.75120117 744.22880859 302.50240234 744.45761719 303.27636719 744.69335938 C325.45200605 751.35875634 348.02694555 755.28161891 371 758 C371.86294678 758.10675049 372.72589355 758.21350098 373.61499023 758.32348633 C382.89655941 759.33260649 392.23808612 759.20078294 401.5625 759.1875 C402.93199799 759.18559662 402.93199799 759.18559662 404.3291626 759.18365479 C437.48224444 759.09597314 471.21215227 756.01534929 503 746 C503.90628143 745.71832977 503.90628143 745.71832977 504.83087158 745.43096924 C525.84472745 738.89945488 546.18548924 731.64667086 566 722 C567.31025146 721.36263916 567.31025146 721.36263916 568.64697266 720.71240234 C598.62753825 705.9243345 626.16650105 686.28046647 650.49511719 663.40332031 C652.11078843 661.89668853 653.74461269 660.41177979 655.3828125 658.9296875 C660.60260725 654.19579957 665.69580839 649.5107223 670.21875 644.08984375 C672.43197645 641.49318552 674.78243775 639.04305801 677.125 636.5625 C683.99516821 629.15662296 690.01116096 621.123169 696 613 C696.5067627 612.31808594 697.01352539 611.63617187 697.53564453 610.93359375 C723.32856259 576.06150134 740.09439463 537.1338261 753 496 C753.28746094 495.08976074 753.57492187 494.17952148 753.87109375 493.24169922 C770.33145285 439.95684758 770.93118694 378.4060335 758.51660156 324.28076172 C757.9896369 321.9542476 757.50496217 319.62146032 757.0234375 317.28515625 C750.37067778 286.15011684 738.54768579 255.72901997 723 228 C722.06238294 226.22922865 721.12487764 224.4583981 720.1875 222.6875 C706.16179329 197.14474957 688.63921685 171.83215353 667.5546875 151.5546875 C665.86455958 149.86455958 664.34898869 148.08055351 662.8125 146.25 C657.99835564 140.6886492 652.49014747 135.87384225 647 131 C646.42185547 130.48244141 645.84371094 129.96488281 645.24804688 129.43164062 C625.58227188 111.86297766 604.02421786 96.8457684 581 84 C580.20787109 83.5580127 579.41574219 83.11602539 578.59960938 82.66064453 C500.78135874 39.67750491 409.53585634 28.6634683 192 109 Z " fill="#2D2B2B" transform="translate(0,0)"/>
<path d="M0 0 C0.33 0 0.66 0 1 0 C1.103125 1.0725 1.20625 2.145 1.3125 3.25 C1.68739189 6.88366639 1.68739189 6.88366639 3.4375 8.89453125 C5.26886036 11.36228934 5.91050134 13.473394 6.6875 16.4375 C6.93886719 17.36433594 7.19023438 18.29117187 7.44921875 19.24609375 C7.9828988 21.91449402 8.10336553 24.28788525 8 27 C8.66 27 9.32 27 10 27 C10.12375 28.0725 10.2475 29.145 10.375 30.25 C10.77407467 33.77790392 10.77407467 33.77790392 11.9375 35.875 C13.21986118 38.43972235 13.89906037 40.97823049 14.625 43.75 C15.01558594 45.22726562 15.01558594 45.22726562 15.4140625 46.734375 C15.60742188 47.48203125 15.80078125 48.2296875 16 49 C16.33 49 16.66 49 17 49 C17.12117188 50.09957031 17.24234375 51.19914062 17.3671875 52.33203125 C18.20784819 59.80231318 19.13038314 67.19377243 20.5625 74.578125 C21.12399855 77.68642054 21.46709304 80.79593038 21.78125 83.9375 C21.98743387 85.88151937 22.27250587 87.81670579 22.5625 89.75 C22.94077395 92.56003507 23 95.17556425 23 98 C23.33 98.66 23.66 99.32 24 100 C23.835 100.78375 23.67 101.5675 23.5 102.375 C22.96327425 105.19281019 23.22689838 106.29414432 24 109 C25.62126568 116.81155282 24.22488346 124.22553311 23 132 C23.66 132 24.32 132 25 132 C25 130.35 25 128.7 25 127 C25.33 127 25.66 127 26 127 C26.11715173 136.41118918 25.82010434 145.61935444 25 155 C24.8298294 157.41642246 24.66319926 159.8330967 24.5 162.25 C23.94911423 169.90307459 23.3006014 177.29203637 21.5 184.76171875 C21.12297218 186.44950734 20.81265677 188.15239704 20.53515625 189.859375 C19.78618233 194.25481319 18.68649938 198.55101446 17.62109375 202.87890625 C17.05944379 205.70128561 16.99500444 208.14253685 17 211 C16.319375 212.0828125 16.319375 212.0828125 15.625 213.1875 C13.64613806 216.61245336 13.15395732 219.72458761 12.52734375 223.59765625 C11.99803022 226.00897343 11.11005975 227.81225724 10 230 C10.0309375 231.2375 10.0309375 231.2375 10.0625 232.5 C9.98384622 235.6461512 8.86732584 236.53512989 7 239 C6.65259077 240.99760305 6.32033957 242.99787771 6 245 C5.06553465 247.03144641 4.06775224 249.03533587 3 251 C2.608125 251.78375 2.21625 252.5675 1.8125 253.375 C1.544375 253.91125 1.27625 254.4475 1 255 C1.66 255.99 2.32 256.98 3 258 C2.319375 259.0828125 2.319375 259.0828125 1.625 260.1875 C-0.24327167 263.42104711 -1.54837963 266.58578308 -2.68359375 270.140625 C-4.07602485 274.49828501 -5.61166685 278.08313363 -8 282 C-8.6226875 283.53427955 -9.22444927 285.07711441 -9.8125 286.625 C-11.68679085 291.45076035 -14.02029914 295.88221556 -16.5546875 300.390625 C-17.82799715 302.68946513 -18.99322196 305.00450427 -20.125 307.375 C-21.71654813 310.61753167 -23.67463194 313.2245607 -26 316 C-27.42851751 318.20229783 -28.71901985 320.39695297 -29.828125 322.77734375 C-32.50102733 328.49690171 -36.04204424 333.10621523 -40 338 C-41.07087786 339.36848524 -42.13382841 340.74322309 -43.1875 342.125 C-43.63480469 342.70507812 -44.08210938 343.28515625 -44.54296875 343.8828125 C-46.15134551 346.14390411 -46.15134551 346.14390411 -47.8203125 349.31640625 C-50.01809196 353.21734814 -52.73127496 356.46619093 -55.6875 359.8125 C-56.40583008 360.64104492 -56.40583008 360.64104492 -57.13867188 361.48632812 C-58.74771994 363.33453066 -60.37305836 365.1675332 -62 367 C-62.63131836 367.72034424 -63.26263672 368.44068848 -63.91308594 369.18286133 C-70.04550647 376.10768124 -76.49891645 382.68509125 -83.03759766 389.22290039 C-84.87042269 391.05791722 -86.6950701 392.9008125 -88.51953125 394.74414062 C-95.36658189 401.6241551 -102.31537068 408.0503786 -110 414 C-110.63131836 414.49491943 -111.26263672 414.98983887 -111.91308594 415.49975586 C-113.40918656 416.66134259 -114.92246967 417.80071333 -116.4375 418.9375 C-117.88962891 420.03384766 -117.88962891 420.03384766 -119.37109375 421.15234375 C-122 423 -122 423 -124.015625 423.98046875 C-126.78746641 425.40458412 -128.94304422 427.35744359 -131.3125 429.375 C-136.37479717 433.57562957 -141.16306896 436.61048276 -147.0625 439.5 C-151.18770433 441.60648732 -154.8939527 444.2283391 -158.6875 446.875 C-167.24994349 452.36788828 -177.05144254 458.58632045 -187 461 C-187.721875 461.45375 -188.44375 461.9075 -189.1875 462.375 C-192.33295717 464.19237525 -195.41592457 465.21667098 -198.86328125 466.31640625 C-203.4698877 467.79018345 -207.69842174 469.79919252 -212 472 C-212.99 471.34 -213.98 470.68 -215 470 C-215.804375 470.61875 -216.60875 471.2375 -217.4375 471.875 C-220.79747631 474.14956829 -224.02566359 474.76662276 -227.96875 475.49609375 C-230.15566111 475.8954711 -230.15566111 475.8954711 -232.125 477.625 C-234.94453179 479.69265665 -237.58426195 479.06099532 -241 479 C-242.34187818 479.6492959 -243.67479497 480.31731862 -245 481 C-246.49068052 481.35429907 -247.99197408 481.6663652 -249.5 481.9375 C-253.13046948 482.67780781 -255.05173595 483.76338589 -258 486 C-260 486 -262 486 -264 486 C-265.93058836 486.39561237 -267.84885316 486.8560383 -269.75 487.375 C-283.36120366 490.92792449 -297.10859934 492.73857113 -311.12890625 493.78125 C-312.99292726 493.92327065 -314.85537189 494.08861407 -316.71484375 494.28125 C-335.71772608 496.11777017 -355.09509079 495.47933235 -374 493 C-375.68702778 492.8286194 -377.37456519 492.66220395 -379.0625 492.5 C-390.23008637 491.38495681 -390.23008637 491.38495681 -395 489 C-396.66614608 488.95834635 -398.33385392 488.95834635 -400 489 C-400.61101562 488.84660156 -401.22203125 488.69320313 -401.8515625 488.53515625 C-404.20408238 487.94916493 -406.46067993 487.7105949 -408.875 487.5 C-414.58183316 486.95529493 -419.7103348 486.33367582 -425 484 C-425 483.34 -425 482.68 -425 482 C-426.32 482.33 -427.64 482.66 -429 483 C-429 482.34 -429 481.68 -429 481 C-430.32 481.33 -431.64 481.66 -433 482 C-433 481.34 -433 480.68 -433 480 C-434.32 480.33 -435.64 480.66 -437 481 C-437.495 479.515 -437.495 479.515 -438 478 C-440.64 478.33 -443.28 478.66 -446 479 C-446.99 477.515 -446.99 477.515 -448 476 C-450.50671754 475.05277668 -450.50671754 475.05277668 -453.375 474.4375 C-456.85128461 473.60825151 -459.86435617 472.7312915 -463 471 C-463 470.34 -463 469.68 -463 469 C-465.31 469 -467.62 469 -470 469 C-470.33 467.68 -470.66 466.36 -471 465 C-467.74352946 465.59969724 -464.67822762 466.3689345 -461.55078125 467.453125 C-460.71240723 467.74010254 -459.8740332 468.02708008 -459.01025391 468.32275391 C-458.11999512 468.62874512 -457.22973633 468.93473633 -456.3125 469.25 C-429.72140871 478.21767008 -402.87158009 483.70198073 -375 487 C-373.70557983 487.16012573 -373.70557983 487.16012573 -372.38500977 487.32348633 C-363.10344059 488.33260649 -353.76191388 488.20078294 -344.4375 488.1875 C-343.52450134 488.18623108 -342.61150269 488.18496216 -341.6708374 488.18365479 C-308.51775556 488.09597314 -274.78784773 485.01534929 -243 475 C-242.09371857 474.71832977 -242.09371857 474.71832977 -241.16912842 474.43096924 C-220.15527255 467.89945488 -199.81451076 460.64667086 -180 451 C-179.12649902 450.57509277 -178.25299805 450.15018555 -177.35302734 449.71240234 C-146.64634282 434.56617262 -118.95590292 414.33055239 -94 391 C-92.94866506 390.04851068 -91.89523874 389.09932764 -90.83984375 388.15234375 C-85.88731235 383.70017591 -81.09848985 379.24286377 -76.81640625 374.125 C-74.58882855 371.51897362 -72.22875564 369.05511028 -69.875 366.5625 C-63.00487325 359.1565748 -56.98884541 351.12317764 -51 343 C-50.4932373 342.31808594 -49.98647461 341.63617187 -49.46435547 340.93359375 C-23.67143741 306.06150134 -6.90560537 267.1338261 6 226 C6.43119141 224.63464111 6.43119141 224.63464111 6.87109375 223.24169922 C23.63401638 168.97740034 23.62209133 107.03416421 11 52 C10.62734107 50.2995368 10.25495374 48.59901407 9.8828125 46.8984375 C7.56379145 36.55838834 4.75274637 26.518458 1.1472168 16.54541016 C-0.91904836 10.52301008 -1.13163897 6.28123204 0 0 Z " fill="#622828" transform="translate(746,270)"/>
<path d="M0 0 C2.6054402 0.3317789 4.95390187 0.4466795 7.56640625 0.3359375 C11.09553797 0.39785209 12.91797964 1.15268797 16.02734375 2.671875 C19.83519337 3.98834346 23.83602338 3.92676266 27.83203125 4.15234375 C32.36563016 4.4907522 36.71068491 5.35694149 41.12890625 6.3984375 C41.8353125 6.56472656 42.54171875 6.73101562 43.26953125 6.90234375 C45.12890625 7.3984375 45.12890625 7.3984375 47.31640625 8.3359375 C50.55063632 9.55775775 53.74926516 10.19756388 57.140625 10.8359375 C59.12890625 11.3984375 59.12890625 11.3984375 61.12890625 13.3984375 C62.83046875 13.3675 62.83046875 13.3675 64.56640625 13.3359375 C68.12890625 13.3984375 68.12890625 13.3984375 69.87890625 14.8359375 C70.29140625 15.3515625 70.70390625 15.8671875 71.12890625 16.3984375 C72.11890625 16.7284375 73.10890625 17.0584375 74.12890625 17.3984375 C74.12890625 18.0584375 74.12890625 18.7184375 74.12890625 19.3984375 C75.44890625 19.7284375 76.76890625 20.0584375 78.12890625 20.3984375 C78.12890625 21.0584375 78.12890625 21.7184375 78.12890625 22.3984375 C73.60870381 21.45065312 69.16605446 20.45308201 64.75390625 19.0859375 C62.87976423 18.52058546 61.00463553 17.95850081 59.12890625 17.3984375 C57.93136719 17.0375 56.73382813 16.6765625 55.5 16.3046875 C-28.69426551 -7.97200394 -120.14781364 3.80813965 -211.32128906 48.29980469 C-225.35811174 56.20175164 -239.01683324 64.67393973 -251.87109375 74.3984375 C-252.47663086 74.85524902 -253.08216797 75.31206055 -253.70605469 75.78271484 C-264.71278877 84.14297248 -275.73033081 92.8777186 -285.32421875 102.8515625 C-286.97150573 104.49884948 -288.70788861 105.96830346 -290.49609375 107.4609375 C-300.32967467 115.95791519 -308.87765073 126.19853997 -316.87109375 136.3984375 C-317.3501416 137.00494141 -317.82918945 137.61144531 -318.32275391 138.23632812 C-346.55254072 174.07083795 -368.63223511 214.66738288 -381.87109375 258.3984375 C-382.09990234 259.14963867 -382.32871094 259.90083984 -382.56445312 260.67480469 C-389.22985009 282.85044355 -393.15271266 305.42538305 -395.87109375 328.3984375 C-395.97784424 329.26138428 -396.08459473 330.12433105 -396.19458008 331.01342773 C-397.20370024 340.29499691 -397.07187669 349.63652362 -397.05859375 358.9609375 C-397.05732483 359.87393616 -397.05605591 360.78693481 -397.05474854 361.7276001 C-396.95746924 398.50962542 -394.00606055 439.57937273 -379.44970703 473.87304688 C-378.72554181 477.03370724 -379.42763455 478.55612933 -380.87109375 481.3984375 C-384.08873826 476.57197073 -385.23370511 471.20021926 -384.87109375 465.3984375 C-385.53109375 465.3984375 -386.19109375 465.3984375 -386.87109375 465.3984375 C-387.20109375 466.3884375 -387.53109375 467.3784375 -387.87109375 468.3984375 C-387.94457031 467.49351562 -387.94457031 467.49351562 -388.01953125 466.5703125 C-388.09429687 465.77109375 -388.1690625 464.971875 -388.24609375 464.1484375 C-388.31570313 463.35953125 -388.3853125 462.570625 -388.45703125 461.7578125 C-388.89282654 459.27460161 -389.72235477 457.62834258 -390.87109375 455.3984375 C-391.45122272 453.49305978 -391.99146863 451.57518797 -392.49609375 449.6484375 C-392.75648438 448.66359375 -393.016875 447.67875 -393.28515625 446.6640625 C-393.47851562 445.91640625 -393.671875 445.16875 -393.87109375 444.3984375 C-394.20109375 444.3984375 -394.53109375 444.3984375 -394.87109375 444.3984375 C-395.18522271 441.94030212 -395.49778585 439.48199369 -395.80859375 437.0234375 C-395.90140625 436.29044434 -395.99421875 435.55745117 -396.08984375 434.80224609 C-396.580724 430.87952519 -397.02394429 426.96200593 -397.37109375 423.0234375 C-397.66828768 419.82860273 -398.18160572 416.78155222 -398.87109375 413.6484375 C-400.40424687 406.42888812 -400.87745713 398.96734165 -400.8671875 391.59375 C-400.87123904 389.31678373 -401.30517039 387.59925058 -401.87109375 385.3984375 C-403.41202413 377.38559953 -402.50811712 369.47393376 -401.87109375 361.3984375 C-402.20109375 363.3784375 -402.53109375 365.3584375 -402.87109375 367.3984375 C-403.20109375 367.3984375 -403.53109375 367.3984375 -403.87109375 367.3984375 C-403.97961281 357.33028047 -403.76789275 347.43521535 -402.87109375 337.3984375 C-402.70055545 334.98204096 -402.5339455 332.56536424 -402.37109375 330.1484375 C-401.82180934 322.51760945 -401.14781152 315.15958838 -399.40625 307.703125 C-397.97976753 301.55987934 -396.85646286 295.37627822 -395.87109375 289.1484375 C-395.20091394 285.05405769 -394.3527989 281.28791352 -392.87109375 277.3984375 C-390.697031 271.01212818 -388.59844826 264.55474901 -387.43359375 257.8984375 C-386.87109375 255.3984375 -386.87109375 255.3984375 -385.92578125 253.515625 C-384.86098134 251.37813777 -384.14104917 249.30168378 -383.43359375 247.0234375 C-382.51696887 244.17535306 -381.55273353 241.77350817 -380.18359375 239.0859375 C-378.57853688 236.29787108 -378.57853688 236.29787108 -378.87109375 232.3984375 C-378.21109375 231.4084375 -377.55109375 230.4184375 -376.87109375 229.3984375 C-377.36609375 228.4084375 -377.36609375 228.4084375 -377.87109375 227.3984375 C-377.05859375 225.5859375 -377.05859375 225.5859375 -375.87109375 223.3984375 C-375.19668244 221.7348896 -374.53106165 220.06776808 -373.87109375 218.3984375 C-371.15922934 211.95775953 -371.15922934 211.95775953 -369.80859375 209.3359375 C-368.77803665 207.34215576 -368.77803665 207.34215576 -368.12109375 204.8359375 C-366.26076362 199.72002964 -363.53205288 195.13560179 -360.87109375 190.3984375 C-360.19626953 189.14353516 -360.19626953 189.14353516 -359.5078125 187.86328125 C-357.25551518 183.68642028 -354.86683793 180.09318865 -351.87109375 176.3984375 C-351.41734375 175.4909375 -350.96359375 174.5834375 -350.49609375 173.6484375 C-348.69710917 170.05046834 -346.55339941 166.85368999 -344.2734375 163.546875 C-342.85628675 161.48016782 -342.85628675 161.48016782 -341.93359375 159.4296875 C-340.0959184 155.91648462 -337.38161308 153.05771101 -334.84375 150.03125 C-332.78338434 147.44547082 -332.78338434 147.44547082 -331.38671875 144.421875 C-328.09136598 137.84815581 -322.76333227 132.11906174 -317.49609375 127.0234375 C-314.83964581 124.5949472 -314.83964581 124.5949472 -313.43359375 121.8984375 C-311.58892632 118.94696961 -309.42829358 117.24760444 -306.7578125 115.05859375 C-304.13392888 112.74979346 -301.95655923 110.13806883 -299.6953125 107.48046875 C-296.59749687 103.9448462 -293.22513661 100.68866136 -289.87109375 97.3984375 C-288.98421875 96.5115625 -288.09734375 95.6246875 -287.18359375 94.7109375 C-286.42046875 93.9478125 -285.65734375 93.1846875 -284.87109375 92.3984375 C-284.04609375 91.5321875 -283.22109375 90.6659375 -282.37109375 89.7734375 C-279.87109375 87.3984375 -279.87109375 87.3984375 -277.49609375 86.0234375 C-275.10292918 84.54195467 -273.6578963 83.227434 -271.74609375 81.2109375 C-266.92051335 76.22627204 -261.1172685 71.45594689 -254.84765625 68.41796875 C-251.31039689 66.59341402 -248.44005818 63.82427467 -245.40625 61.2734375 C-242.92495723 59.4382749 -240.74178945 58.47141884 -237.87109375 57.3984375 C-236.20403347 56.22168907 -234.53902257 55.04151177 -232.8984375 53.828125 C-229.04270893 51.1090563 -224.93487349 48.78966481 -220.87109375 46.3984375 C-220.08863281 45.92664063 -219.30617187 45.45484375 -218.5 44.96875 C-215.33153167 43.07614336 -212.13618092 41.23242714 -208.93359375 39.3984375 C-208.33869141 39.05554688 -207.74378906 38.71265625 -207.13085938 38.359375 C-197.346561 32.75612653 -197.346561 32.75612653 -193.80859375 31.8984375 C-191.68656605 31.44860091 -191.68656605 31.44860091 -189.37109375 29.8984375 C-187.0545615 28.50851815 -185.46271151 27.96535388 -182.87109375 27.3984375 C-180.30360601 26.41094222 -177.7744841 25.35703337 -175.24609375 24.2734375 C-172.87109375 23.3984375 -172.87109375 23.3984375 -169.87109375 23.3984375 C-168.88109375 22.9034375 -168.88109375 22.9034375 -167.87109375 22.3984375 C-165.87109375 21.3984375 -165.87109375 21.3984375 -162.87109375 21.3984375 C-161.96359375 20.9446875 -161.05609375 20.4909375 -160.12109375 20.0234375 C-156.74983832 18.33780978 -153.49413333 17.40483738 -149.87109375 16.3984375 C-149.16984375 16.0478125 -148.46859375 15.6971875 -147.74609375 15.3359375 C-145.48165506 14.20371815 -143.35856819 13.83374553 -140.87109375 13.3984375 C-134.82866165 11.98853668 -128.93694388 10.12173908 -123.08203125 8.08203125 C-120.68665884 7.34141257 -118.33761321 6.85270295 -115.87109375 6.3984375 C-114.64777344 6.17285156 -113.42445313 5.94726562 -112.1640625 5.71484375 C-111.49955078 5.59294678 -110.83503906 5.4710498 -110.15039062 5.34545898 C-102.96585911 4.04574936 -102.96585911 4.04574936 -95.87109375 2.3359375 C-86.53708182 -0.14211876 -76.34357394 -0.66876517 -66.7421875 -1.3828125 C-64.87816649 -1.52483315 -63.01572186 -1.69017657 -61.15625 -1.8828125 C-40.86006596 -3.8443229 -20.12238621 -3.10266961 0 0 Z " fill="#5A2626" transform="translate(443.87109375,35.6015625)"/>
<path d="M0 0 C3.96 0 7.92 0 12 0 C12 20.13 12 40.26 12 61 C8.37 61 4.74 61 1 61 C1 59.35 1 57.7 1 56 C0.34 56 -0.32 56 -1 56 C-1 56.66 -1 57.32 -1 58 C-6.21448208 61.10649996 -10.8657253 63.36713487 -17 62 C-22.57652692 59.60860616 -26.13305281 56.40309278 -29 51 C-31.84471194 43.65715148 -32.30255715 35.23086621 -30 27.625 C-27.95641148 22.99745099 -24.08472416 19.84118918 -20 17 C-16.08388282 15.69462761 -13.12694381 15.7009461 -9 16 C-6.36 17.32 -3.72 18.64 -1 20 C-0.67 13.4 -0.34 6.8 0 0 Z " fill="#4CAE64" transform="translate(542,367)"/>
<path d="M0 0 C3.96 0 7.92 0 12 0 C12 7.92 12 15.84 12 24 C19.92 24 27.84 24 36 24 C36 16.08 36 8.16 36 0 C40.29 0 44.58 0 49 0 C49 20.13 49 40.26 49 61 C44.71 61 40.42 61 36 61 C36 52.09 36 43.18 36 34 C28.08 34 20.16 34 12 34 C12 42.91 12 51.82 12 61 C8.04 61 4.08 61 0 61 C0 40.87 0 20.74 0 0 Z " fill="#FF8114" transform="translate(188,367)"/>
<path d="M0 0 C4.56003933 3.1569503 8.35103234 6.59916773 10 12 C10.96739783 20.20313874 10.78944243 28.02407298 6 35 C0.68405038 40.55758369 -5.27318245 43.05914224 -12.875 43.5 C-19.73835468 43.27757647 -25.50036084 40.37145254 -30.4375 35.6875 C-34.75027912 28.26951991 -36.20287599 21.55503394 -35 13 C-32.42482853 5.86794074 -28.39604626 1.86449599 -21.8125 -1.75 C-14.6063591 -4.60112531 -6.72895743 -3.61101379 0 0 Z " fill="#6AAD48" transform="translate(494,386)"/>
<path d="M0 0 C4.78847701 3.36033475 8.74354949 7.99012945 11.00390625 13.40625 C11.00390625 14.39625 11.00390625 15.38625 11.00390625 16.40625 C7.04390625 17.06625 3.08390625 17.72625 -0.99609375 18.40625 C-1.36734375 17.478125 -1.73859375 16.55 -2.12109375 15.59375 C-4.37555511 11.76116569 -5.82962105 10.84849055 -9.99609375 9.40625 C-15.41785556 8.81478508 -19.31338153 9.57895205 -23.99609375 12.40625 C-28.90754405 17.77995445 -28.58499284 24.87155695 -28.37890625 31.76171875 C-27.8724761 36.5831405 -26.93159495 40.49528722 -23.99609375 44.40625 C-20.19464476 47.25733674 -16.61496108 47.96893486 -11.953125 47.74609375 C-8.45368403 47.1384064 -6.57408899 45.80438511 -3.99609375 43.40625 C-2.65794733 40.76025482 -1.85459629 38.26792512 -0.99609375 35.40625 C3.3927995 36.07123383 6.98505475 37.59382677 11.00390625 39.40625 C10.43159207 45.51093455 6.93049342 50.42614652 2.75390625 54.71875 C-4.81114926 59.36094316 -12.6426752 60.57772751 -21.34765625 58.97265625 C-28.09709675 57.10554298 -33.57196397 53.22460471 -37.34765625 47.27734375 C-42.40423303 37.40064881 -42.82762028 24.7751488 -40.16015625 14.04296875 C-36.94444714 7.10437494 -31.2681126 1.64017631 -24.30859375 -1.53125 C-16.45100847 -4.00608001 -7.35758243 -3.79396516 0 0 Z " fill="#9AA732" transform="translate(439.99609375,368.59375)"/>
<path d="M0 0 C3.35562907 2.38765915 4.51726037 3.65697422 6.25 7.3125 C6.66650391 10.64648438 6.66650391 10.64648438 6.7265625 14.40625 C6.74214203 15.07539429 6.75772156 15.74453857 6.77377319 16.43395996 C6.82104136 18.56012845 6.84895501 20.68597503 6.875 22.8125 C6.91165192 24.93879363 6.95242854 27.06491155 6.99765015 29.19104004 C7.03704681 31.1200542 7.06497537 33.04929249 7.09228516 34.97851562 C7.18106024 38.61590455 7.18106024 38.61590455 8.25 43.3125 C4.62 43.3125 0.99 43.3125 -2.75 43.3125 C-3.245 40.8375 -3.245 40.8375 -3.75 38.3125 C-4.20890625 38.66183594 -4.6678125 39.01117188 -5.140625 39.37109375 C-6.06101562 40.05365234 -6.06101562 40.05365234 -7 40.75 C-7.60328125 41.20246094 -8.2065625 41.65492188 -8.828125 42.12109375 C-13.06698881 44.74884469 -17.87644561 44.82055393 -22.75 44.3125 C-27.90075357 42.52954684 -30.34985587 40.2051015 -32.75 35.3125 C-33.73856511 30.68379792 -33.20207265 28.03855607 -30.6875 24 C-23.94765459 17.83375845 -15.47902528 17.0195632 -6.75 15.3125 C-6.75 13.0025 -6.75 10.6925 -6.75 8.3125 C-8.35332791 8.23128076 -9.95784026 8.17320866 -11.5625 8.125 C-12.45582031 8.09019531 -13.34914063 8.05539062 -14.26953125 8.01953125 C-16.79398426 8.0988515 -16.79398426 8.0988515 -18.51171875 9.69921875 C-19.82532978 11.30496378 -19.82532978 11.30496378 -20.75 13.3125 C-22.20922693 13.19840407 -23.66740598 13.07084456 -25.125 12.9375 C-25.93710938 12.86789062 -26.74921875 12.79828125 -27.5859375 12.7265625 C-29.75 12.3125 -29.75 12.3125 -31.75 10.3125 C-29.56549957 5.09397119 -27.22544039 2.57584195 -22.75 -0.6875 C-16.06964395 -2.91428535 -6.47386249 -3.00096803 0 0 Z " fill="#FF920D" transform="translate(278.75,384.6875)"/>
<path d="M0 0 C5.7724165 2.6338022 9.24481277 6.3060958 11.9921875 12.0625 C12.6796875 15.3125 12.6796875 15.3125 12.6796875 25.3125 C3.1096875 25.3125 -6.4603125 25.3125 -16.3203125 25.3125 C-13.63713467 33.91896694 -13.63713467 33.91896694 -10.3203125 35.3125 C-7.44725022 35.81345023 -7.44725022 35.81345023 -4.3203125 35.3125 C-3.5365625 34.466875 -2.7528125 33.62125 -1.9453125 32.75 C0.6796875 30.3125 0.6796875 30.3125 2.6640625 30.16796875 C5.78906342 30.56144514 8.69597544 31.31792931 11.6796875 32.3125 C11.59832226 35.07891818 11.1125149 36.82347677 9.265625 38.91015625 C3.14106239 44.40067823 -2.4099685 45.80957996 -10.5703125 45.62109375 C-15.58040342 45.05888184 -19.36585105 43.37166475 -22.8515625 39.69921875 C-28.14063773 32.76499511 -29.04495806 25.8538141 -28.3203125 17.3125 C-27.24764877 10.61100677 -24.57322733 6.9752803 -19.35546875 2.72265625 C-13.37710618 -1.41974085 -7.04171793 -2.08643494 0 0 Z " fill="#42A986" transform="translate(590.3203125,383.6875)"/>
<path d="M0 0 C3.96 0 7.92 0 12 0 C12.01458252 0.95366455 12.02916504 1.9073291 12.04418945 2.88989258 C12.10217792 6.42933585 12.17940958 9.96814324 12.26245117 13.50708008 C12.29569818 15.03855059 12.32373093 16.57014356 12.34643555 18.10180664 C12.37998718 20.30407887 12.4322991 22.50522912 12.48828125 24.70703125 C12.49467117 25.39150833 12.5010611 26.07598541 12.50764465 26.78120422 C12.5955405 29.62506301 12.70081341 31.56950284 14.34838867 33.94018555 C17.44841822 35.92942845 20.81354512 35.16033174 24.3125 34.6875 C24.869375 34.460625 25.42625 34.23375 26 34 C27.16402727 30.50791819 27.21118508 27.60852228 27.31640625 23.92578125 C27.33718735 23.2419487 27.35796844 22.55811615 27.37937927 21.8535614 C27.44466154 19.6733079 27.50366017 17.49293595 27.5625 15.3125 C27.60570553 13.83267014 27.64932047 12.35285217 27.69335938 10.87304688 C27.80032083 7.24882378 27.90164823 3.62446811 28 0 C31.96 0 35.92 0 40 0 C40 14.52 40 29.04 40 44 C36.7 44 33.4 44 30 44 C30 42.02 30 40.04 30 38 C29.34 38 28.68 38 28 38 C27.67 38.99 27.34 39.98 27 41 C21.69905531 44.72498816 16.47188618 45.91030384 10 45 C6.13563525 42.95844881 3.14929943 40.84611478 1 37 C0.0443866 32.50488 -0.11661228 28.22017136 -0.09765625 23.6328125 C-0.0962413 22.95322479 -0.09482635 22.27363708 -0.09336853 21.57345581 C-0.08781518 19.42392388 -0.07527169 17.27449992 -0.0625 15.125 C-0.05747896 13.65885568 -0.05291711 12.19270971 -0.04882812 10.7265625 C-0.03786111 7.15100717 -0.02062919 3.57551414 0 0 Z " fill="#C6A220" transform="translate(348,384)"/>
<path d="M0 0 C3.59432037 2.00452482 5.08131492 3.33184766 7.25 6.8125 C7.592908 9.80593932 7.71916655 12.4137261 7.640625 15.39453125 C7.63496521 16.20871017 7.62930542 17.0228891 7.62347412 17.86174011 C7.60116774 20.45010353 7.55098445 23.0370584 7.5 25.625 C7.47992747 27.38474556 7.46167802 29.14451293 7.4453125 30.90429688 C7.40132207 35.20757005 7.33233627 39.5097966 7.25 43.8125 C3.62 43.8125 -0.01 43.8125 -3.75 43.8125 C-3.7593457 42.89436523 -3.76869141 41.97623047 -3.77832031 41.03027344 C-3.82239931 37.61544722 -3.88403732 34.20186892 -3.95751953 30.78759766 C-3.98570088 29.31147804 -4.00692966 27.83520831 -4.02099609 26.35888672 C-4.04246698 24.23326943 -4.08913043 22.10945121 -4.140625 19.984375 C-4.16157227 18.7065918 -4.18251953 17.42880859 -4.20410156 16.11230469 C-4.83533003 12.29670363 -5.66638103 11.0779302 -8.75 8.8125 C-12.16842532 8.31397964 -14.0158625 8.41566892 -17.0625 10.0625 C-20.34779668 13.46947433 -19.92199909 17.7896143 -20.06640625 22.328125 C-20.10830078 23.57851563 -20.15019531 24.82890625 -20.19335938 26.1171875 C-20.23267578 27.41914063 -20.27199219 28.72109375 -20.3125 30.0625 C-20.35568359 31.37992187 -20.39886719 32.69734375 -20.44335938 34.0546875 C-20.54941854 37.30716854 -20.65021153 40.55982053 -20.75 43.8125 C-24.71 43.8125 -28.67 43.8125 -32.75 43.8125 C-32.75 29.2925 -32.75 14.7725 -32.75 -0.1875 C-29.12 -0.1875 -25.49 -0.1875 -21.75 -0.1875 C-21.42 1.4625 -21.09 3.1125 -20.75 4.8125 C-19.821875 4.008125 -18.89375 3.20375 -17.9375 2.375 C-12.56029001 -2.28524866 -6.49312559 -2.05615644 0 0 Z " fill="#F09B0B" transform="translate(328.75,384.1875)"/>
<path d="M0 0 C14.13418917 5.69644763 28.07182925 11.81921682 42 18 C42 21.3 42 24.6 42 28 C36.98451665 30.24563632 31.96738896 32.48754282 26.94873047 34.72607422 C25.24319992 35.48743134 23.53811569 36.24978911 21.83349609 37.01318359 C19.37715663 38.11301568 16.91921175 39.20918798 14.4609375 40.3046875 C13.70444916 40.6443454 12.94796082 40.9840033 12.16854858 41.33395386 C8.1656756 43.11328835 4.19007392 44.69603509 0 46 C0 42.37 0 38.74 0 35 C23.43642612 24 23.43642612 24 28 24 C28 23.34 28 22.68 28 22 C27.47535156 21.86464844 26.95070313 21.72929687 26.41015625 21.58984375 C20.40841115 19.92213754 14.68933728 17.74510683 8.9375 15.375 C7.79390015 14.90501587 7.79390015 14.90501587 6.62719727 14.42553711 C1.13376371 12.13376371 1.13376371 12.13376371 0 11 C-0.07226502 9.14712498 -0.0838122 7.29166122 -0.0625 5.4375 C-0.05347656 4.42558594 -0.04445313 3.41367187 -0.03515625 2.37109375 C-0.02355469 1.58863281 -0.01195312 0.80617188 0 0 Z " fill="#2B9BDF" transform="translate(684,375)"/>
<path d="M0 0 C0 3.63 0 7.26 0 11 C-6.96617869 14.24452158 -13.97557018 17.24727022 -21.13500977 20.03173828 C-24.30704912 21.11558403 -24.30704912 21.11558403 -27 23 C-26.21761963 23.32798584 -25.43523926 23.65597168 -24.62915039 23.99389648 C-21.73411828 25.20890103 -18.84001626 26.42608696 -15.9465332 27.64477539 C-14.69267184 28.1723493 -13.43844073 28.69904531 -12.18383789 29.22485352 C-10.38331289 29.97963701 -8.5842117 30.73781418 -6.78515625 31.49609375 C-5.70113525 31.95169678 -4.61711426 32.4072998 -3.50024414 32.87670898 C-1 34 -1 34 0 35 C0.07226502 36.85287502 0.0838122 38.70833878 0.0625 40.5625 C0.05347656 41.57441406 0.04445312 42.58632813 0.03515625 43.62890625 C0.02355469 44.41136719 0.01195312 45.19382812 0 46 C-10.49442444 41.90270875 -20.91276039 37.68725738 -31.1875 33.0625 C-32.05407227 32.67328369 -32.92064453 32.28406738 -33.81347656 31.88305664 C-39.86646958 29.13353042 -39.86646958 29.13353042 -41 28 C-41.07226502 26.14712498 -41.0838122 24.29166122 -41.0625 22.4375 C-41.05347656 21.42558594 -41.04445313 20.41367187 -41.03515625 19.37109375 C-41.02355469 18.58863281 -41.01195313 17.80617188 -41 17 C-40.28569824 16.69819824 -39.57139648 16.39639648 -38.83544922 16.08544922 C-35.51514531 14.68233062 -32.1950545 13.27870865 -28.875 11.875 C-27.0962146 11.12319458 -27.0962146 11.12319458 -25.28149414 10.35620117 C-17.922702 7.24373785 -10.57413722 4.10993722 -3.24609375 0.92578125 C-1 0 -1 0 0 0 Z " fill="#FF6222" transform="translate(128,375)"/>
<path d="M0 0 C4.8084161 -0.42932287 7.69543321 -0.53168694 11.69140625 2.2890625 C16.05304152 5.15898797 20.54222572 6.92744643 25.4375 8.6875 C27.04270154 9.26832114 28.64571111 9.85524855 30.24609375 10.44921875 C30.94404053 10.70018311 31.6419873 10.95114746 32.36108398 11.2097168 C34 12 34 12 35 14 C35.99 14.2475 35.99 14.2475 37 14.5 C37.99 14.7475 37.99 14.7475 39 15 C39.495 15.99 39.495 15.99 40 17 C40.99 17.2475 40.99 17.2475 42 17.5 C42.99 17.7475 42.99 17.7475 44 18 C44.495 18.99 44.495 18.99 45 20 C47.52733235 20.65555119 47.52733235 20.65555119 50 21 C50 21.66 50 22.32 50 23 C50.66 23 51.32 23 52 23 C52 23.66 52 24.32 52 25 C52.99 25 53.98 25 55 25 C55 25.66 55 26.32 55 27 C55.99 27 56.98 27 58 27 C58 27.66 58 28.32 58 29 C59.32 29 60.64 29 62 29 C62 29.66 62 30.32 62 31 C62.99 31 63.98 31 65 31 C65 31.99 65 32.98 65 34 C65.99 34 66.98 34 68 34 C68.309375 35.2065625 68.309375 35.2065625 68.625 36.4375 C69.07875 37.283125 69.5325 38.12875 70 39 C73.02270522 39.74000384 73.02270522 39.74000384 76 40 C76.33 40.66 76.66 41.32 77 42 C79.52733235 42.65555119 79.52733235 42.65555119 82 43 C82 44.32 82 45.64 82 47 C83.65 47 85.3 47 87 47 C87.04125 47.61875 87.0825 48.2375 87.125 48.875 C87.41375 49.57625 87.7025 50.2775 88 51 C88.969375 51.309375 89.93875 51.61875 90.9375 51.9375 C91.948125 52.288125 92.95875 52.63875 94 53 C94.28875 53.763125 94.5775 54.52625 94.875 55.3125 C96.40584049 58.96950785 98.68686331 59.82412082 102.125 61.59375 C104.55532549 63.41649412 104.91619355 65.19559809 106 68 C107.84610436 70.09634834 107.84610436 70.09634834 110.0625 72.0625 C115.44044779 77.23091736 119.66920805 82.94917721 124 89 C123.67 89.66 123.34 90.32 123 91 C112.3609609 80.53410982 112.3609609 80.53410982 108.4375 75.875 C104.37270328 71.12305908 99.68734877 67.12175616 95 63 C93.41656405 61.54177809 91.83323105 60.08344437 90.25 58.625 C63.83999037 34.92160627 32.58136047 15.01613243 0 1 C0 0.67 0 0.34 0 0 Z " fill="#672B2B" transform="translate(553,70)"/>
<path d="M0 0 C2.97 0 5.94 0 9 0 C8.64736084 1.49817261 8.64736084 1.49817261 8.28759766 3.02661133 C7.95475048 4.44091747 7.62190563 5.85522416 7.2890625 7.26953125 C7.10993317 8.03054642 6.93080383 8.79156158 6.74624634 9.57563782 C5.78203236 13.67293591 4.81899371 17.77050425 3.85839844 21.86865234 C2.89567478 25.97575652 1.93006832 30.08217495 0.96289062 34.18823242 C0.56638609 35.87387067 0.1709009 37.55974898 -0.22363281 39.24584961 C-0.80533292 41.7309277 -1.39059468 44.21514398 -1.9765625 46.69921875 C-2.15055573 47.44612473 -2.32454895 48.1930307 -2.5038147 48.96257019 C-3.4737888 53.05700651 -4.60063725 57.02523096 -6 61 C-8.64 61 -11.28 61 -14 61 C-13.50018044 53.36907309 -11.99654175 46.25219993 -10.05859375 38.8671875 C-9.77146011 37.74933868 -9.48432648 36.63148987 -9.18849182 35.47976685 C-8.27836552 31.94302936 -7.35810925 28.40902158 -6.4375 24.875 C-5.81508151 22.46371547 -5.19332999 20.05225866 -4.57226562 17.640625 C-3.05588383 11.75840266 -1.53119761 5.878382 0 0 Z " fill="#35A0C6" transform="translate(671,367)"/>
<path d="M0 0 C5.54301576 2.26993569 9.77651731 3.35363712 15.5625 1.4375 C17.94278291 0.01074827 17.94278291 0.01074827 19.5625 -1.5625 C20.2225 -1.5625 20.8825 -1.5625 21.5625 -1.5625 C22.47549937 7.14480883 22.47549937 7.14480883 20.33203125 10.1796875 C16.23596835 13.59813011 12.36419818 14.8242438 7.07421875 14.8046875 C3.8091568 14.32736896 1.05317574 13.18125629 -2 11.9375 C-8.50430503 9.27297983 -8.50430503 9.27297983 -15.4375 9.4375 C-17.95175665 10.59754317 -20.10599044 11.91488151 -22.4375 13.4375 C-22.72531486 9.72788624 -22.87482172 6.13873503 -22.4375 2.4375 C-16.06686313 -4.79403374 -7.99211243 -3.37444747 0 0 Z " fill="#FF701B" transform="translate(157.4375,391.5625)"/>
<path d="M0 0 C2.97361628 1.78152067 5.42653612 3.85307225 7 7 C7.14901491 9.10053716 7.22138453 11.20687825 7.25 13.3125 C7.27578125 14.44300781 7.3015625 15.57351563 7.328125 16.73828125 C6.88630458 21.1301866 5.27504784 23.67941473 2.25 26.8125 C-1.03392206 28.54568109 -3.34119985 28.44932633 -7 28 C-10.52931079 25.8039844 -12.47305061 23.8341901 -14 20 C-14.62977827 14.74208377 -15.16577147 8.98504473 -12.1875 4.375 C-8.26187071 0.11288819 -5.71278858 -0.67778848 0 0 Z " fill="#FBFDFB" transform="translate(485,392)"/>
<path d="M0 0 C3.86320406 0.00830797 6.90993663 1.45156024 10.4375 2.9375 C16.02306438 5.1948119 20.25567333 6.35725007 26.0625 4.375 C28.31273156 3.20786745 30.06338028 1.96404388 32.0625 0.375 C32.84484364 10.4585403 32.84484364 10.4585403 29.875 13.9375 C28.4828125 14.6490625 28.4828125 14.6490625 27.0625 15.375 C26.27875 15.7875 25.495 16.2 24.6875 16.625 C18.34916374 18.43595322 14.586579 17.31364666 8.5625 14.875 C2.0236335 12.2138325 2.0236335 12.2138325 -4.9375 12.375 C-7.45175665 13.53504317 -9.60599044 14.85238151 -11.9375 16.375 C-12.2253135 12.66540377 -12.36954258 9.07669817 -11.9375 5.375 C-8.40205968 1.25031962 -5.14223886 0.65645602 0 0 Z " fill="#39A3AB" transform="translate(621.9375,388.625)"/>
<path d="M0 0 C2.75329021 1.79562405 4.52627461 3.05254922 6 6 C6.17603147 8.41249692 6.26744968 10.83150895 6.3125 13.25 C6.34988281 14.55453125 6.38726563 15.8590625 6.42578125 17.203125 C5.93840983 21.54922608 4.7421195 23.64230265 2 27 C-1.13871188 28.56935594 -3.53855822 28.35201103 -7 28 C-10.15954305 25.45862841 -11.71540886 23.85377341 -13 20 C-13.48656771 13.51554951 -13.9143045 7.50902115 -10 2 C-6.2626144 -0.4915904 -4.42668417 -0.45793285 0 0 Z " fill="#FAFDFB" transform="translate(536,392)"/>
<path d="M0 0 C5.52696549 0.45420255 10.89565747 1.09127682 16.30737305 2.30761719 C62.3261898 12.61041171 110.20087943 11.24482629 156.29638672 2.42724609 C159 2 159 2 163 2 C162.67 2.99 162.34 3.98 162 5 C154.02884628 8.22385048 145.17287387 8.59355845 136.6875 9.0625 C129.8251875 9.45877991 123.58636219 9.89727319 117 12 C111.68277628 12.91576476 106.47231023 13.21672223 101.09375 13.3515625 C100.25138794 13.37471527 99.40902588 13.39786804 98.5411377 13.42172241 C96.76283192 13.46913924 94.98446745 13.5143986 93.20605469 13.55761719 C90.53552101 13.6241155 87.86550265 13.7022795 85.1953125 13.78125 C70.70143128 14.17243912 57.07241287 13.89236952 43 10 C37.31666157 8.60834525 31.84646603 7.88449759 26 7.5625 C19.91621655 7.18679506 14.71758183 6.03994126 9 4 C7.29221309 3.43584319 5.58390052 2.87327451 3.875 2.3125 C2.58280836 1.87655299 1.29093133 1.43966502 0 1 C0 0.67 0 0.34 0 0 Z " fill="#672424" transform="translate(319,749)"/>
<path d="M0 0 C0.33 0 0.66 0 1 0 C0.98952637 1.25731934 0.97905273 2.51463867 0.96826172 3.81005859 C0.62928852 48.58330708 0.57193281 97.42263839 18.42138672 139.47460938 C19.14555194 142.63526974 18.4434592 144.15769183 17 147 C13.78235549 142.17353323 12.63738864 136.80178176 13 131 C12.34 131 11.68 131 11 131 C10.67 131.99 10.34 132.98 10 134 C9.95101562 133.39671875 9.90203125 132.7934375 9.8515625 132.171875 C9.73941406 130.97304688 9.73941406 130.97304688 9.625 129.75 C9.55539063 128.96109375 9.48578125 128.1721875 9.4140625 127.359375 C8.97826721 124.87616411 8.14873898 123.22990508 7 121 C6.41987103 119.09462228 5.87962512 117.17675047 5.375 115.25 C5.11460938 114.26515625 4.85421875 113.2803125 4.5859375 112.265625 C4.39257812 111.51796875 4.19921875 110.7703125 4 110 C3.67 110 3.34 110 3 110 C-0.95717212 84.40467397 -1.18884295 58.55769815 -1.18758392 32.72250748 C-1.18752791 31.36428953 -1.18796135 30.00607148 -1.18888092 28.64785385 C-1.1919243 24.12325077 -1.1833408 19.59879429 -1.16796875 15.07421875 C-1.16676529 13.90060791 -1.16556183 12.72699707 -1.1643219 11.51782227 C-1.15803268 10.43903809 -1.15174347 9.36025391 -1.14526367 8.2487793 C-1.14145187 7.30383102 -1.13764008 6.35888275 -1.13371277 5.38529968 C-1 3 -1 3 0 0 Z " fill="#6F2C2C" transform="translate(46,370)"/>
<path d="M0 0 C0.99 0.495 0.99 0.495 2 1 C1.5875 1.495 1.175 1.99 0.75 2.5 C-0.70741891 4.58202701 -1.69282128 6.40454078 -2.75 8.6875 C-5.16696667 13.65980929 -8.53892671 17.72058183 -12 22 C-13.07087786 23.36848524 -14.13382841 24.74322309 -15.1875 26.125 C-15.63480469 26.70507812 -16.08210937 27.28515625 -16.54296875 27.8828125 C-18.15134551 30.14390411 -18.15134551 30.14390411 -19.8203125 33.31640625 C-22.01809196 37.21734814 -24.73127496 40.46619093 -27.6875 43.8125 C-28.16638672 44.36486328 -28.64527344 44.91722656 -29.13867188 45.48632812 C-30.74771994 47.33453066 -32.37305836 49.1675332 -34 51 C-34.94697754 52.08051636 -34.94697754 52.08051636 -35.91308594 53.18286133 C-42.04550647 60.10768124 -48.49891645 66.68509125 -55.03759766 73.22290039 C-56.87042269 75.05791722 -58.6950701 76.9008125 -60.51953125 78.74414062 C-67.36794789 85.62547011 -74.32293996 92.0387367 -82 98 C-82.63663574 98.5055542 -83.27327148 99.0111084 -83.92919922 99.53198242 C-85.43955145 100.72577653 -86.96879453 101.89557325 -88.5 103.0625 C-89.96953125 104.19365234 -89.96953125 104.19365234 -91.46875 105.34765625 C-94 107 -94 107 -97 107 C-97 106.34 -97 105.68 -97 105 C-95.56640625 103.73828125 -95.56640625 103.73828125 -93.5625 102.3125 C-92.83546875 101.78269531 -92.1084375 101.25289062 -91.359375 100.70703125 C-90.19148437 99.86205078 -90.19148437 99.86205078 -89 99 C-82.645227 94.39366107 -82.645227 94.39366107 -77.25 88.75 C-74.99028954 85.98813166 -73.2059228 84.51859501 -70 83 C-69.01 83 -68.02 83 -67 83 C-66.76732422 82.44280273 -66.53464844 81.88560547 -66.29492188 81.31152344 C-64.66430607 78.40076355 -62.63760806 76.37818867 -60.28125 74.015625 C-58.88326172 72.61376953 -58.88326172 72.61376953 -57.45703125 71.18359375 C-56.97186035 70.7026123 -56.48668945 70.22163086 -55.98681641 69.72607422 C-54.49793661 68.24795152 -53.02008349 66.75940089 -51.54296875 65.26953125 C-50.61097656 64.34011719 -49.67898438 63.41070313 -48.71875 62.453125 C-47.86216797 61.59879883 -47.00558594 60.74447266 -46.12304688 59.86425781 C-44 58 -44 58 -42 58 C-41.814375 57.13375 -41.814375 57.13375 -41.625 56.25 C-40.40303003 51.8509081 -38.72320507 49.54709526 -35.125 46.75 C-31.01713029 43.28096717 -29.02350741 39.91423227 -27 35 C-25.04213217 30.59479737 -24.19241582 29.09620791 -20 27 C-19.54625 26.030625 -19.0925 25.06125 -18.625 24.0625 C-16.60794217 20.26112178 -14.78590489 19.85432076 -11 18 C-7.62510626 13.87512987 -6.21932672 10.08052799 -5 5 C-4.34 5 -3.68 5 -3 5 C-2.5359375 4.0409375 -2.5359375 4.0409375 -2.0625 3.0625 C-1 1 -1 1 0 0 Z " fill="#552626" transform="translate(718,586)"/>
<path d="M0 0 C0.495 1.485 0.495 1.485 1 3 C-2.77322919 6.86354585 -6.53703828 10.66480697 -10.6875 14.125 C-20.50475297 22.58948189 -29.02804117 32.827517 -37 43 C-37.71857178 43.90975586 -37.71857178 43.90975586 -38.45166016 44.83789062 C-47.40006822 56.19687888 -55.9350681 67.89392174 -63.3828125 80.30419922 C-63.82367188 81.03783691 -64.26453125 81.77147461 -64.71875 82.52734375 C-65.3055957 83.52689087 -65.3055957 83.52689087 -65.90429688 84.54663086 C-66.44666992 85.26604858 -66.44666992 85.26604858 -67 86 C-67.66 86 -68.32 86 -69 86 C-67.68067921 82.37186782 -65.9663312 79.15816552 -64.0078125 75.8359375 C-63.00545094 74.00993 -62.21200377 72.18218309 -61.4375 70.25 C-60.19136914 67.43266066 -59.44242577 65.80527122 -57 64 C-56.34 64 -55.68 64 -55 64 C-54.7525 62.948125 -54.505 61.89625 -54.25 60.8125 C-53.18662097 57.12759627 -51.58781298 54.87534776 -49 52 C-47.999006 50.81333776 -46.99906741 49.62578472 -46 48.4375 C-44.3517436 46.50763196 -42.75442183 44.77609049 -40.875 43.0625 C-39.07813784 41.08595163 -38.35507529 39.70481835 -37.29296875 37.3046875 C-35.05277993 32.74032854 -32.08585383 29.55222975 -28.4375 26.0625 C-27.82124756 25.45841309 -27.20499512 24.85432617 -26.57006836 24.23193359 C-22.06092806 19.86779859 -17.33851478 15.91832534 -12.41015625 12.03515625 C-9.39831948 9.4919359 -6.91045561 6.68918882 -4.4375 3.62890625 C-3 2 -3 2 0 0 Z " fill="#6B2B2B" transform="translate(164,129)"/>
<path d="M0 0 C0.33 0 0.66 0 1 0 C0.68509992 4.33490108 0.34679207 8.66754135 0 13 C-0.09087891 14.29744141 -0.09087891 14.29744141 -0.18359375 15.62109375 C-0.79811798 22.85743008 -3.71145306 28.57950359 -7 35 C-6.34 35.99 -5.68 36.98 -5 38 C-5.45375 38.7425 -5.9075 39.485 -6.375 40.25 C-7.97179656 42.84042793 -7.97179656 42.84042793 -8.9375 45.0625 C-10.6296277 48.14814463 -12.85133542 50.42566771 -16 52 C-16.46873555 54.01775507 -16.46873555 54.01775507 -16.75 56.4375 C-17.81369981 62.47966366 -20.59897706 66.97333087 -24 72 C-24.66 71.67 -25.32 71.34 -26 71 C-24.84515732 67.17009802 -23.3962813 63.54118983 -21.78515625 59.88671875 C-14.49016416 43.32160021 -8.58738838 26.52044216 -3.06225586 9.29785156 C-2.06169134 6.1915253 -1.03755467 3.0941415 0 0 Z " fill="#6A2E2E" transform="translate(754,490)"/>
<path d="M0 0 C0.33 0 0.66 0 1 0 C1.11715173 9.41118918 0.82010434 18.61935444 0 28 C-0.1701706 30.41642246 -0.33680074 32.8330967 -0.5 35.25 C-1.05088577 42.90307459 -1.6993986 50.29203637 -3.5 57.76171875 C-3.87702782 59.44950734 -4.18734323 61.15239704 -4.46484375 62.859375 C-5.21381767 67.25481319 -6.31350062 71.55101446 -7.37890625 75.87890625 C-7.94055621 78.70128561 -8.00499556 81.14253685 -8 84 C-8.680625 85.0828125 -8.680625 85.0828125 -9.375 86.1875 C-11.35386194 89.61245336 -11.84604268 92.72458761 -12.47265625 96.59765625 C-13.00203529 99.00927188 -13.89360411 100.81025813 -15 103 C-14.979375 103.86625 -14.95875 104.7325 -14.9375 105.625 C-14.958125 106.40875 -14.97875 107.1925 -15 108 C-16.485 108.99 -16.485 108.99 -18 110 C-17.71766639 107.24874911 -17.42452667 104.49938663 -17.125 101.75 C-17.04636719 100.97269531 -16.96773437 100.19539063 -16.88671875 99.39453125 C-16.44765031 95.44291529 -15.90106491 92.52049057 -14 89 C-13.29209591 86.33640757 -12.62984395 83.68133568 -12 81 C-11.68160156 79.76121094 -11.36320313 78.52242188 -11.03515625 77.24609375 C-6.320455 58.78491415 -2.6606095 40.47025878 -2.99609375 21.34765625 C-3.00248014 15.8745226 -2.50662594 10.44622891 -2 5 C-1.34 5 -0.68 5 0 5 C0 3.35 0 1.7 0 0 Z " fill="#572626" transform="translate(771,397)"/>
<path d="M0 0 C0 0.99 0 1.98 0 3 C-5.04140164 5.81532819 -9.22621075 7.5188509 -15 8 C-15.33 8.99 -15.66 9.98 -16 11 C-16.99 11.33 -17.98 11.66 -19 12 C-19.474375 12.66 -19.94875 13.32 -20.4375 14 C-22.28920731 16.37018536 -23.12237896 16.47679617 -26 17 C-27.3479743 17.63654342 -28.68596724 18.29605388 -30 19 C-30.99 18.34 -31.98 17.68 -33 17 C-33.804375 17.61875 -34.60875 18.2375 -35.4375 18.875 C-39.39912295 21.49761286 -43.37202704 22.20985828 -48 23 C-48.99 23.185625 -49.98 23.37125 -51 23.5625 C-56.40642197 24.53565596 -61.50758205 25.24965536 -67 25 C-64.62957087 22.62957087 -63.05800938 22.26358502 -59.85546875 21.3359375 C-58.79634277 21.02261475 -57.7372168 20.70929199 -56.64599609 20.38647461 C-55.50469238 20.05268799 -54.36338867 19.71890137 -53.1875 19.375 C-37.30250793 14.60556341 -21.89330803 8.95172018 -6.79443359 2.08178711 C-2.19580436 0 -2.19580436 0 0 0 Z " fill="#6B3434" transform="translate(564,723)"/>
<path d="M0 0 C4.1668836 0.14000657 8.33344499 0.28805718 12.5 0.4375 C13.67304688 0.47681641 14.84609375 0.51613281 16.0546875 0.55664062 C25.8752419 0.91525638 25.8752419 0.91525638 30.671875 1.57421875 C33.92091905 2.1835781 33.92091905 2.1835781 36.75 1.375 C37.4925 1.25125 38.235 1.1275 39 1 C40.34400833 1.98560611 41.67607028 2.98758315 43 4 C45.3260857 4.38063221 47.66055264 4.71269945 50 5 C51.67745682 5.63903117 53.34561387 6.30341637 55 7 C56.66014616 7.36442233 58.32706064 7.69972883 60 8 C63.4883043 8.65405706 66.07857176 9.97123039 69 12 C69 12.66 69 13.32 69 14 C70.32 14.33 71.64 14.66 73 15 C73 15.66 73 16.32 73 17 C68.47979756 16.05221562 64.03714821 15.05464451 59.625 13.6875 C57.75085798 13.12214796 55.87572928 12.56006331 54 12 C52.20369141 11.45859375 52.20369141 11.45859375 50.37109375 10.90625 C33.89304471 6.1655914 16.89969249 3.73654559 0 1 C0 0.67 0 0.34 0 0 Z " fill="#612525" transform="translate(449,41)"/>
<path d="M0 0 C5.87207481 -0.05370218 11.74406666 -0.08983883 17.61633301 -0.11459351 C19.99386661 -0.12469788 22.37139184 -0.13704764 24.74890137 -0.15176392 C49.2907353 -0.28184659 49.2907353 -0.28184659 59.83886719 2.05761719 C59.83886719 2.38761719 59.83886719 2.71761719 59.83886719 3.05761719 C58.06189453 2.94933594 58.06189453 2.94933594 56.24902344 2.83886719 C17.50263841 0.70225704 -19.84350174 1.88663527 -57.82397461 10.21435547 C-59.57834839 10.59503174 -59.57834839 10.59503174 -61.36816406 10.98339844 C-62.39401611 11.21454346 -63.41986816 11.44568848 -64.47680664 11.68383789 C-67.10083892 12.04922156 -68.6833043 11.91556854 -71.16113281 11.05761719 C-71.16113281 10.72761719 -71.16113281 10.39761719 -71.16113281 10.05761719 C-69.33582031 9.84105469 -69.33582031 9.84105469 -67.47363281 9.62011719 C-64.33442904 9.22980766 -61.25361941 8.73409863 -58.16113281 8.05761719 C-58.16113281 7.39761719 -58.16113281 6.73761719 -58.16113281 6.05761719 C-41.55698632 2.11562557 -25.70049174 0.16025087 -8.65246582 0.07263184 C-5.76822823 0.05524925 -2.88415685 0.02769123 0 0 Z " fill="#712D2D" transform="translate(386.1611328125,37.9423828125)"/>
<path d="M0 0 C-1.16063965 0.34611328 -1.16063965 0.34611328 -2.34472656 0.69921875 C-16.97021389 5.08469821 -31.36088445 9.63000343 -45.44921875 15.56640625 C-49 17 -49 17 -51 17 C-50.3125 15.125 -50.3125 15.125 -49 13 C-47.3364521 12.32558869 -45.66933058 11.6599679 -44 11 C-42.7315625 9.6696875 -42.7315625 9.6696875 -41.4375 8.3125 C-40.633125 7.549375 -39.82875 6.78625 -39 6 C-37.65938457 6.30271961 -36.32594105 6.63837971 -35 7 C-34.113125 6.401875 -33.22625 5.80375 -32.3125 5.1875 C-26.01702037 1.03010779 -18.46385205 0.73400482 -11.125 -0.1875 C-10.37500732 -0.28369629 -9.62501465 -0.37989258 -8.85229492 -0.47900391 C-5.5113853 -0.86849309 -3.23085646 -1.07695215 0 0 Z " fill="#5D2525" transform="translate(315,51)"/>
<path d="M0 0 C2.8125 1.625 2.8125 1.625 5 4 C5.33 5.98 5.66 7.96 6 10 C0.06 10 -5.88 10 -12 10 C-11 4 -11 4 -8.8125 1.625 C-5.45414218 -0.31538452 -3.81760338 -0.63626723 0 0 Z " fill="#F7FBF9" transform="translate(586,392)"/>
<path d="M0 0 C3.33490088 6.48584815 4.14832373 12.73213714 4 20 C4.33 20.66 4.66 21.32 5 22 C5 24.66666667 5 27.33333333 5 30 C5.33 30.66 5.66 31.32 6 32 C5.835 32.78375 5.67 33.5675 5.5 34.375 C4.96327425 37.19281019 5.22689838 38.29414432 6 41 C7.07459461 47.23264872 6.83365975 52.74113914 6 59 C5.67 59 5.34 59 5 59 C2.42744705 44.30360706 0.70223564 29.96024337 0.375 15.0625 C0.3366685 13.58917351 0.29760904 12.11586577 0.2578125 10.64257812 C0.1635316 7.09522731 0.07893113 3.54772961 0 0 Z " fill="#5E2525" transform="translate(764,338)"/>
<path d="M0 0 C-6.7720049 5.73109999 -13.0964377 10.5982552 -21.0625 14.5 C-25.38939039 16.70947594 -29.25995745 19.46310638 -33.1875 22.3125 C-34.115625 22.869375 -35.04375 23.42625 -36 24 C-36.99 23.67 -37.98 23.34 -39 23 C-37.73742767 21.82439821 -36.46462916 20.65977135 -35.1875 19.5 C-34.47980469 18.8503125 -33.77210938 18.200625 -33.04296875 17.53125 C-31 16 -31 16 -28 16 C-27.67 15.01 -27.34 14.02 -27 13 C-24.16248502 10.16248502 -21.86632034 8.83722581 -18 8.0625 C-13.75451876 7.17206199 -11.95269027 5.18579739 -9 2 C-3.64285714 -1.21428571 -3.64285714 -1.21428571 0 0 Z " fill="#572626" transform="translate(620,695)"/>
<path d="M0 0 C1.43463347 2.66076836 2.34212847 5.01596494 2.89453125 7.984375 C3.04293457 8.74709717 3.19133789 9.50981934 3.34423828 10.2956543 C3.49876465 11.10558838 3.65329102 11.91552246 3.8125 12.75 C5.35668355 20.4880093 7.36934301 27.90053448 9.8515625 35.38671875 C10.23054688 36.57910156 10.60953125 37.77148438 11 39 C11.23041992 39.70205566 11.46083984 40.40411133 11.69824219 41.12744141 C12.3359375 43.26953125 12.3359375 43.26953125 13 47 C11.625 49 11.625 49 10 50 C9.49193553 48.27318563 8.99389533 46.54342021 8.5 44.8125 C8.2215625 43.84957031 7.943125 42.88664062 7.65625 41.89453125 C7.03322392 39.14654124 6.87697188 36.80401584 7 34 C6.34 34 5.68 34 5 34 C4.67 34.99 4.34 35.98 4 37 C3.86722656 36.03578125 3.73445313 35.0715625 3.59765625 34.078125 C3.42105469 32.81484375 3.24445312 31.5515625 3.0625 30.25 C2.88847656 28.99703125 2.71445312 27.7440625 2.53515625 26.453125 C2.09865242 23.23363157 2.09865242 23.23363157 1.48632812 21.06835938 C0.96038259 18.83150667 0.79211005 16.74746962 0.68359375 14.453125 C0.64169922 13.60878906 0.59980469 12.76445312 0.55664062 11.89453125 C0.51732422 11.02183594 0.47800781 10.14914062 0.4375 9.25 C0.39431641 8.36183594 0.35113281 7.47367187 0.30664062 6.55859375 C0.20086385 4.37254037 0.09877454 2.18637911 0 0 Z " fill="#6D3030" transform="translate(52,467)"/>
<path d="M0 0 C1.53232991 3.06465982 0.17817475 5.71845889 -0.6875 8.875 C-5.0808766 25.73004431 -7.84940031 42.72582828 -10 60 C-10.33 60 -10.66 60 -11 60 C-12.76786246 44.0892379 -11.5239539 28.7797787 -4.8046875 14.0390625 C-3.94135348 11.85139085 -3.64985291 9.96088198 -3.4375 7.625 C-3.00040273 4.00333691 -2.47742052 2.58513446 0 0 Z " fill="#733333" transform="translate(58,304)"/>
<path d="M0 0 C0.36786787 6.498999 0.36786787 6.498999 -1.23046875 8.67578125 C-3.37806608 10.28292362 -4.84565313 10.58302184 -7.5 10.875 C-8.2734375 10.97554688 -9.046875 11.07609375 -9.84375 11.1796875 C-12 11 -12 11 -13.84375 9.8203125 C-15 8 -15 8 -14.6875 5.3125 C-14.460625 4.549375 -14.23375 3.78625 -14 3 C-12.23050388 2.49528803 -10.45934777 1.99639315 -8.6875 1.5 C-7.70136719 1.2215625 -6.71523438 0.943125 -5.69921875 0.65625 C-3 0 -3 0 0 0 Z " fill="#FFFAF4" transform="translate(273,409)"/>
<path d="M0 0 C-0.33 0.99 -0.66 1.98 -1 3 C-8.7131245 6.06562059 -17.29416437 6.64493449 -25.5 7.1875 C-26.61552246 7.26790527 -27.73104492 7.34831055 -28.88037109 7.43115234 C-38.92753524 8.1030645 -48.93602141 8.20446006 -59 8 C-59 7.67 -59 7.34 -59 7 C-58.36425049 6.96559814 -57.72850098 6.93119629 -57.07348633 6.89575195 C-39.9756944 5.91364528 -23.50534488 3.64123862 -6.70361328 0.42724609 C-4 0 -4 0 0 0 Z " fill="#713131" transform="translate(482,751)"/>
<path d="M0 0 C-5.16343341 5.78930412 -10.42198917 7.97988316 -18 9 C-19.8128976 9.35212579 -21.62535927 9.70649964 -23.4375 10.0625 C-27.72658002 10.85351886 -31.649453 11.19335764 -36 11 C-33.53732117 8.53732117 -31.65764484 8.12313416 -28.328125 7.125 C-27.18859375 6.77953125 -26.0490625 6.4340625 -24.875 6.078125 C-23.67875 5.72234375 -22.4825 5.3665625 -21.25 5 C-18.90088454 4.29218792 -16.55192116 3.58387091 -14.203125 2.875 C-13.15801758 2.56304688 -12.11291016 2.25109375 -11.03613281 1.9296875 C-8.91895192 1.28139023 -6.81958809 0.57320036 -4.73730469 -0.1796875 C-2 -1 -2 -1 0 0 Z " fill="#6A2D2D" transform="translate(533,737)"/>
<path d="M0 0 C4.88257771 3.99832416 9.22359064 8.24683447 13.4375 12.9375 C17.53427633 17.43361806 21.66222925 21.63719511 26.34375 25.53515625 C28.88891269 27.78618457 30.91258001 30.32549313 33 33 C19.15124169 26.57598391 8.28572372 14.55590758 0 2 C0 1.34 0 0.68 0 0 Z " fill="#703030" transform="translate(135,637)"/>
<path d="M0 0 C0.99 0.33 1.98 0.66 3 1 C2.11699219 1.61746094 1.23398438 2.23492187 0.32421875 2.87109375 C-6.49544269 7.67216596 -13.10244666 12.60341106 -19.51171875 17.94921875 C-22.91778889 20.75641941 -26.43686168 23.39656083 -30 26 C-30 22 -30 22 -28.390625 20.25390625 C-27.68421875 19.69574219 -26.9778125 19.13757813 -26.25 18.5625 C-23.83268727 16.63312632 -21.96639083 14.95518777 -20.1015625 12.46875 C-17.66367197 9.60490833 -15.52969817 8.49257207 -12.125 6.9375 C-8.70476239 5.32944675 -5.49161093 3.79346264 -2.4375 1.5625 C-1.633125 1.046875 -0.82875 0.53125 0 0 Z " fill="#612525" transform="translate(199,102)"/>
<path d="M0 0 C3.28508242 0.6029101 6.3675955 1.38741761 9.51953125 2.48828125 C10.79534058 2.92708618 10.79534058 2.92708618 12.09692383 3.37475586 C12.99306396 3.68421143 13.8892041 3.99366699 14.8125 4.3125 C23.7811618 7.3647116 32.76599537 9.89720687 42 12 C42 12.33 42 12.66 42 13 C30.38671529 12.44055605 18.52822112 11.26411056 8 6 C8 5.34 8 4.68 8 4 C5.69 4 3.38 4 1 4 C0.67 2.68 0.34 1.36 0 0 Z " fill="#6A2929" transform="translate(275,735)"/>
<path d="M0 0 C1 3 1 3 -0.3125 6.125 C-2 9 -2 9 -4 10 C-4.28875 11.051875 -4.5775 12.10375 -4.875 13.1875 C-6.06318742 17.21413513 -7.34739847 19.75793146 -10 23 C-11.010625 23.495 -12.02125 23.99 -13.0625 24.5 C-16.76371339 26.38998131 -17.25005762 28.34102956 -19 32 C-21.0859375 32.6796875 -21.0859375 32.6796875 -23 33 C-21.66265575 30.99398362 -20.32466423 28.98842652 -18.984375 26.984375 C-17.48523487 24.72976267 -15.99709303 22.46929756 -14.515625 20.203125 C-13.63542596 18.86457722 -12.75521761 17.52603557 -11.875 16.1875 C-11.45557129 15.54159912 -11.03614258 14.89569824 -10.60400391 14.23022461 C-8.32419254 10.77450581 -6.0097168 7.87291149 -3 5 C-1.95650161 3.36021682 -0.94392019 1.69905634 0 0 Z " fill="#602525" transform="translate(717,582)"/>
<path d="M0 0 C13.50014445 4.73225704 22.93498332 17.86259601 31 29 C30.67 29.66 30.34 30.32 30 31 C19.3609609 20.53410982 19.3609609 20.53410982 15.4375 15.875 C12.01467987 11.84570931 8.12953825 8.43520537 4.13671875 4.98046875 C2 3 2 3 0 0 Z " fill="#713030" transform="translate(646,130)"/>
<path d="M0 0 C0.66 0 1.32 0 2 0 C0.43963714 5.0794791 -1.22669853 9.45178559 -4 14 C-4.6226875 15.53427955 -5.22444927 17.07711441 -5.8125 18.625 C-8.03607715 24.36996198 -10.95245772 29.65664253 -14 35 C-15 33 -15 33 -14.29296875 30.57421875 C-13.92816406 29.62160156 -13.56335938 28.66898438 -13.1875 27.6875 C-12.83042969 26.74261719 -12.47335937 25.79773438 -12.10546875 24.82421875 C-11.74066406 23.89222656 -11.37585938 22.96023438 -11 22 C-10.50306641 20.71029297 -10.50306641 20.71029297 -9.99609375 19.39453125 C-9.07203653 17.17317017 -8.02419885 15.11112085 -6.875 13 C-5.26764308 9.85672424 -4.55105924 7.59152609 -5 4 C-4.360625 3.71125 -3.72125 3.4225 -3.0625 3.125 C-0.84793921 2.17176549 -0.84793921 2.17176549 0 0 Z " fill="#542626" transform="translate(742,538)"/>
<path d="M0 0 C0.33 0 0.66 0 1 0 C0.43706599 25.63993381 0.43706599 25.63993381 -3 36 C-3.26167969 36.94359375 -3.52335938 37.8871875 -3.79296875 38.859375 C-5.69496086 45.69496086 -5.69496086 45.69496086 -8 48 C-7.42531026 40.42147673 -6.12410968 33.11917494 -4.5625 25.6875 C-2.8074644 17.14841983 -1.15146189 8.64455716 0 0 Z " fill="#713030" transform="translate(763,442)"/>
<path d="M0 0 C-2.92995765 2.34045821 -5.86163599 4.02214952 -9.24609375 5.62890625 C-10.24833984 6.10650391 -11.25058594 6.58410156 -12.28320312 7.07617188 C-13.84458008 7.8119043 -13.84458008 7.8119043 -15.4375 8.5625 C-16.47455078 9.05685547 -17.51160156 9.55121094 -18.58007812 10.06054688 C-23.01392209 12.16498534 -27.42594939 14.21589835 -32 16 C-32 15.34 -32 14.68 -32 14 C-31.195625 13.731875 -30.39125 13.46375 -29.5625 13.1875 C-28.716875 12.795625 -27.87125 12.40375 -27 12 C-26.67 11.01 -26.34 10.02 -26 9 C-23.3828125 7.39453125 -23.3828125 7.39453125 -20.125 5.8125 C-19.05507812 5.28269531 -17.98515625 4.75289063 -16.8828125 4.20703125 C-14 3 -14 3 -11 3 C-11 2.34 -11 1.68 -11 1 C-6.8204355 -1.78637633 -4.85331323 -0.79562512 0 0 Z " fill="#6A2B2B" transform="translate(263,68)"/>
<path d="M0 0 C0.99 0.33 1.98 0.66 3 1 C2.35450195 1.37809814 1.70900391 1.75619629 1.04394531 2.14575195 C-1.88884038 3.86550754 -4.81943575 5.5889619 -7.75 7.3125 C-8.76578125 7.90740234 -9.7815625 8.50230469 -10.828125 9.11523438 C-11.8078125 9.69208984 -12.7875 10.26894531 -13.796875 10.86328125 C-14.69760742 11.39219971 -15.59833984 11.92111816 -16.52636719 12.46606445 C-19.00928434 13.9478399 -19.00928434 13.9478399 -21.20019531 15.69604492 C-23 17 -23 17 -25 17 C-25.33 16.01 -25.66 15.02 -26 14 C-24.01498723 12.33271031 -22.01506269 10.69278803 -20 9.0625 C-19.17048828 8.35963867 -19.17048828 8.35963867 -18.32421875 7.64257812 C-13.86106176 4.0771826 -10.66710727 3.43228718 -5 3 C-3.3170608 2.02763513 -1.64556566 1.03435556 0 0 Z " fill="#602525" transform="translate(228,84)"/>
<path d="M0 0 C0.66 0.33 1.32 0.66 2 1 C-0.49831223 5.46127184 -2.97813316 9.87011532 -6 14 C-6.66 14 -7.32 14 -8 14 C-8.268125 14.639375 -8.53625 15.27875 -8.8125 15.9375 C-10 18 -10 18 -13 19 C-13.28617188 19.58265625 -13.57234375 20.1653125 -13.8671875 20.765625 C-15.40612384 23.80104426 -17.56951304 25.52213957 -20.125 27.75 C-21.03507813 28.54921875 -21.94515625 29.3484375 -22.8828125 30.171875 C-23.58148437 30.77515625 -24.28015625 31.3784375 -25 32 C-25.66 31.67 -26.32 31.34 -27 31 C-26.31035156 30.33355469 -25.62070312 29.66710937 -24.91015625 28.98046875 C-18.45947838 22.65367221 -12.57717614 16.12581041 -7 9 C-6.30261719 8.11183594 -5.60523438 7.22367188 -4.88671875 6.30859375 C-3.2494594 4.21198308 -1.6201504 2.10984216 0 0 Z " fill="#753535" transform="translate(692,617)"/>
<path d="M0 0 C0.66 0 1.32 0 2 0 C4.4354545 2.4354545 4.33429761 3.33239511 4.59765625 6.69140625 C4.67693359 7.63693359 4.75621094 8.58246094 4.83789062 9.55664062 C4.91201172 10.54857422 4.98613281 11.54050781 5.0625 12.5625 C5.2192156 14.50136988 5.37675874 16.44017305 5.53515625 18.37890625 C5.61008301 19.31879395 5.68500977 20.25868164 5.76220703 21.22705078 C6.099575 25.16116311 6.54265365 29.07815384 7 33 C5.33748992 29.79501667 4.29151118 26.74940631 3.375 23.25 C3.11460938 22.26515625 2.85421875 21.2803125 2.5859375 20.265625 C2.39257812 19.51796875 2.19921875 18.7703125 2 18 C1.67 18 1.34 18 1 18 C0.63835477 15.37583048 0.28538847 12.75099687 -0.0625 10.125 C-0.2181543 9.00544922 -0.2181543 9.00544922 -0.37695312 7.86328125 C-1.11328125 2.2265625 -1.11328125 2.2265625 0 0 Z " fill="#5D2525" transform="translate(48,462)"/>
<path d="M0 0 C6.66790422 0.54318681 13.09006564 1.52503516 19.625 2.9375 C28.38522469 4.76764894 37.10103506 6.05541713 46 7 C46 7.33 46 7.66 46 8 C33.32780446 8.18945143 21.04555943 8.29766191 9 4 C7.29221309 3.43584319 5.58390052 2.87327451 3.875 2.3125 C2.58280836 1.87655299 1.29093133 1.43966502 0 1 C0 0.67 0 0.34 0 0 Z " fill="#743434" transform="translate(319,749)"/>
<path d="M0 0 C0.66 0.33 1.32 0.66 2 1 C1.39414063 2.05574219 0.78828125 3.11148438 0.1640625 4.19921875 C-6.46586726 15.87696626 -12.36526927 27.81376242 -18 40 C-18.33 40 -18.66 40 -19 40 C-18.49188572 34.38896657 -16.98554452 30.27502894 -14.375 25.3125 C-14.01962158 24.61987061 -13.66424316 23.92724121 -13.2980957 23.21362305 C-10.08355738 17.01237082 -6.61517624 10.97648123 -3 5 C-2.15888672 3.59814453 -2.15888672 3.59814453 -1.30078125 2.16796875 C-0.87152344 1.45253906 -0.44226563 0.73710937 0 0 Z " fill="#722E2E" transform="translate(94,216)"/>
<path d="M0 0 C-0.99 1.485 -0.99 1.485 -2 3 C-4.33293334 3.04320247 -6.6670134 3.04022391 -9 3 C-11.16715557 3.87483915 -11.16715557 3.87483915 -13 5 C-16.65421128 6.28277163 -19.9318403 5.90613437 -23.75 5.5625 C-24.92046875 5.46066406 -26.0909375 5.35882812 -27.296875 5.25390625 C-28.18890625 5.17011719 -29.0809375 5.08632813 -30 5 C-27.02111628 3.01407752 -25.7475925 2.6259933 -22.32421875 2.1484375 C-20.95813477 1.95507812 -20.95813477 1.95507812 -19.56445312 1.7578125 C-18.14036133 1.56832031 -18.14036133 1.56832031 -16.6875 1.375 C-15.28081055 1.17390625 -15.28081055 1.17390625 -13.84570312 0.96875 C-9.19685507 0.32662581 -4.7056829 -0.17340875 0 0 Z " fill="#5C2525" transform="translate(514,746)"/>
<path d="M0 0 C0.33 0 0.66 0 1 0 C0.88485851 2.04224637 0.75742674 4.08380159 0.625 6.125 C0.55539062 7.26195312 0.48578125 8.39890625 0.4140625 9.5703125 C-0.20846166 14.72669188 -1.98856177 19.17483589 -4.125 23.875 C-4.47820313 24.65617188 -4.83140625 25.43734375 -5.1953125 26.2421875 C-5.46085938 26.82226562 -5.72640625 27.40234375 -6 28 C-6.66 27.67 -7.32 27.34 -8 27 C-5.62971149 17.90425874 -2.84301919 8.95607231 0 0 Z " fill="#733636" transform="translate(754,490)"/>
<path d="M0 0 C-4.26871471 1.34018305 -8.54030064 2.67097109 -12.8125 4 C-14.02744141 4.3815625 -15.24238281 4.763125 -16.49414062 5.15625 C-17.65751953 5.5171875 -18.82089844 5.878125 -20.01953125 6.25 C-21.62985229 6.75273438 -21.62985229 6.75273438 -23.27270508 7.265625 C-26 8 -26 8 -29 8 C-29 7.34 -29 6.68 -29 6 C-8.77526132 -2.92508711 -8.77526132 -2.92508711 0 0 Z " fill="#6D2B2B" transform="translate(315,51)"/>
<path d="M0 0 C2.41926039 0.06018061 4.83248672 0.14722217 7.25 0.25 C7.93191406 0.26417969 8.61382813 0.27835938 9.31640625 0.29296875 C12.78400656 0.46129886 14.6429322 0.69523001 17.3203125 2.98046875 C17.87460937 3.64691406 18.42890625 4.31335937 19 5 C20.66392045 5.67349161 22.33032028 6.3409159 24 7 C24.99 8.485 24.99 8.485 26 10 C17.28172782 7.14674729 8.64481468 4.06687455 0 1 C0 0.67 0 0.34 0 0 Z " fill="#7B4141" transform="translate(522,58)"/>
<path d="M0 0 C0.66 0.33 1.32 0.66 2 1 C1.25328168 12.69203687 0.14648413 24.34157478 -1 36 C-1.33 36 -1.66 36 -2 36 C-2.13032821 23.90843798 -2.10698819 11.95140358 0 0 Z " fill="#512727" transform="translate(42,367)"/>
<path d="M0 0 C0.74056641 0.00451172 1.48113281 0.00902344 2.24414062 0.01367188 C4.05862899 0.02537825 5.87307534 0.04331102 7.6875 0.0625 C7.6875 0.3925 7.6875 0.7225 7.6875 1.0625 C3.49052442 1.94645466 -0.70862798 2.81892035 -4.91015625 3.6809082 C-6.33854081 3.97562593 -7.76628811 4.27345026 -9.19335938 4.57446289 C-11.24709192 5.00709109 -13.30287197 5.42842237 -15.359375 5.84765625 C-17.21320801 6.23256226 -17.21320801 6.23256226 -19.10449219 6.62524414 C-21.98950359 7.01847515 -23.62309858 7.05194135 -26.3125 6.0625 C-26.3125 5.7325 -26.3125 5.4025 -26.3125 5.0625 C-24.4871875 4.8459375 -24.4871875 4.8459375 -22.625 4.625 C-19.48579623 4.23469047 -16.4049866 3.73898144 -13.3125 3.0625 C-13.3125 2.4025 -13.3125 1.7425 -13.3125 1.0625 C-8.8746439 -0.04915232 -4.54293614 -0.05277763 0 0 Z " fill="#763737" transform="translate(341.3125,42.9375)"/>
<path d="M0 0 C-4.455 0.495 -4.455 0.495 -9 1 C-9 1.66 -9 2.32 -9 3 C-20.35235662 4.05253638 -31.60946892 4.10313358 -43 4 C-43 3.67 -43 3.34 -43 3 C-42.28046143 2.9498877 -41.56092285 2.89977539 -40.81958008 2.84814453 C-23.48782018 1.75323112 -23.48782018 1.75323112 -6.3203125 -0.73046875 C-4 -1 -4 -1 0 0 Z " fill="#814747" transform="translate(466,755)"/>
<path d="M0 0 C0.66 0.33 1.32 0.66 2 1 C-1.998233 5.63795028 -7.04919104 7.80983821 -13 9 C-13 6 -13 6 -11.4375 3.875 C-8.32248878 1.47883753 -5.86263601 1.35765148 -2 1 C-1.34 0.67 -0.68 0.34 0 0 Z " fill="#572626" transform="translate(558,728)"/>
<path d="M0 0 C0.28875 0.598125 0.5775 1.19625 0.875 1.8125 C2.04742026 4.19327792 2.04742026 4.19327792 4 7 C4.41064453 8.90112305 4.41064453 8.90112305 4.6328125 11.01171875 C4.71660156 11.76904297 4.80039062 12.52636719 4.88671875 13.30664062 C4.96535156 14.09232422 5.04398438 14.87800781 5.125 15.6875 C5.21136719 16.48478516 5.29773438 17.28207031 5.38671875 18.10351562 C5.59848472 20.06823326 5.80021473 22.03402796 6 24 C5.34 24 4.68 24 4 24 C4 22.02 4 20.04 4 18 C3.01 18 2.02 18 1 18 C0.22959149 11.93303301 -0.09706112 6.11485027 0 0 Z " fill="#5B2525" transform="translate(759,312)"/>
<path d="M0 0 C2.93797442 0.30847234 5.87532282 0.62160223 8.8125 0.9375 C10.06256836 1.06801758 10.06256836 1.06801758 11.33789062 1.20117188 C12.14033203 1.28818359 12.94277344 1.37519531 13.76953125 1.46484375 C14.50792236 1.543396 15.24631348 1.62194824 16.00708008 1.70288086 C18 2 18 2 21 3 C21 3.66 21 4.32 21 5 C22.32 5.33 23.64 5.66 25 6 C25 6.66 25 7.32 25 8 C16.47629928 6.21277243 8.23983977 3.81889255 0 1 C0 0.67 0 0.34 0 0 Z " fill="#773A3A" transform="translate(497,50)"/>
<path d="M0 0 C1 3 1 3 -0.29296875 5.77734375 C-0.91816406 6.82019531 -1.54335938 7.86304688 -2.1875 8.9375 C-2.79980469 9.97777344 -3.41210938 11.01804687 -4.04296875 12.08984375 C-5.83637022 14.75667827 -7.69783127 16.78163613 -10 19 C-10.33 19.721875 -10.66 20.44375 -11 21.1875 C-12 23 -12 23 -14.0625 23.61328125 C-14.701875 23.74089844 -15.34125 23.86851562 -16 24 C-11.32552083 16.98828125 -6.65104167 9.9765625 -1.9765625 2.96484375 C-0.99816406 1.49724609 -0.99816406 1.49724609 0 0 Z " fill="#733232" transform="translate(710,591)"/>
<path d="M0 0 C0.66 0 1.32 0 2 0 C2 2.31 2 4.62 2 7 C1.34 7 0.68 7 0 7 C-1.485 13.435 -1.485 13.435 -3 20 C-3.66 20 -4.32 20 -5 20 C-5 20.66 -5 21.32 -5 22 C-5.66 22 -6.32 22 -7 22 C-6.67 21.113125 -6.34 20.22625 -6 19.3125 C-4.85979778 16.15757914 -4.85979778 16.15757914 -5.0625 13.375 C-4.98241224 10.33166525 -3.80977819 9.38890721 -2 7 C-1.60986284 5.0103005 -1.26797351 3.00980131 -1 1 C-0.67 0.67 -0.34 0.34 0 0 Z " fill="#5B2525" transform="translate(61,281)"/>
<path d="M0 0 C0.66 0.33 1.32 0.66 2 1 C0.73427767 2.15147661 -0.53777906 3.29599314 -1.8125 4.4375 C-2.52019531 5.07558594 -3.22789062 5.71367188 -3.95703125 6.37109375 C-6 8 -6 8 -9 9 C-9.99 7.68 -10.98 6.36 -12 5 C-9.23949662 2.23949662 -6.79944016 2.53325476 -3 2 C-2.01 1.34 -1.02 0.68 0 0 Z " fill="#5C2525" transform="translate(543,733)"/>
<path d="M0 0 C-2.08129104 0.98350025 -4.16511359 1.96164458 -6.25 2.9375 C-7.41015625 3.48277344 -8.5703125 4.02804687 -9.765625 4.58984375 C-14.79551335 6.78282647 -18.49036711 7.10595448 -24 7 C-20.73861167 3.73861167 -16.35316929 3.09728955 -12 1.8125 C-11.071875 1.52697266 -10.14375 1.24144531 -9.1875 0.94726562 C-8.300625 0.68236328 -7.41375 0.41746094 -6.5 0.14453125 C-5.6853125 -0.09934326 -4.870625 -0.34321777 -4.03125 -0.59448242 C-2 -1 -2 -1 0 0 Z " fill="#7F4545" transform="translate(521,741)"/>
<path d="M0 0 C0.66 0.33 1.32 0.66 2 1 C1.195625 1.61875 0.39125 2.2375 -0.4375 2.875 C-3.03874519 4.74164041 -3.03874519 4.74164041 -4 7 C-8.11424088 9.63388318 -12.01572537 11.62303433 -17 11 C-13.60123724 8.35465756 -10.02376093 6.03047558 -6.375 3.75 C-5.78976562 3.37359375 -5.20453125 2.9971875 -4.6015625 2.609375 C-3.10551189 1.67605902 -1.55562556 0.83022604 0 0 Z " fill="#743333" transform="translate(596,704)"/>
<path d="M0 0 C-3.28942366 1.33891561 -6.58189109 2.67017703 -9.875 4 C-10.81214844 4.3815625 -11.74929688 4.763125 -12.71484375 5.15625 C-13.61074219 5.5171875 -14.50664062 5.878125 -15.4296875 6.25 C-16.67081299 6.75273438 -16.67081299 6.75273438 -17.93701172 7.265625 C-20 8 -20 8 -22 8 C-21.4921875 6.17578125 -21.4921875 6.17578125 -20 4 C-17.33382552 2.86028366 -14.88935613 1.98255818 -12.125 1.1875 C-11.40441406 0.95869141 -10.68382812 0.72988281 -9.94140625 0.49414062 C-6.21062187 -0.6292171 -3.71189331 -1.16646273 0 0 Z " fill="#722F2F" transform="translate(286,60)"/>
<path d="M0 0 C0.33 0 0.66 0 1 0 C1.53195312 2.8941856 2.05086335 5.78971515 2.5625 8.6875 C2.71396484 9.50412109 2.86542969 10.32074219 3.02148438 11.16210938 C3.75603004 15.38147633 4.28893273 18.80883464 3 23 C-0.40845782 17.88731328 -0.11919012 12.63415271 -0.0625 6.625 C-0.05347656 5.37976563 -0.04445312 4.13453125 -0.03515625 2.8515625 C-0.02355469 1.91054688 -0.01195312 0.96953125 0 0 Z " fill="#7B3F3F" transform="translate(48,442)"/>
<path d="M0 0 C0.66 0.33 1.32 0.66 2 1 C1.32904297 1.65355469 1.32904297 1.65355469 0.64453125 2.3203125 C-2.28454866 5.2056748 -5.08153545 8.02887045 -7.5625 11.3125 C-10.26525834 14.29246432 -12.13048787 15.10011346 -16 16 C-10.66666667 10.66666667 -5.33333333 5.33333333 0 0 Z " fill="#793B3B" transform="translate(655,658)"/>
<path d="M0 0 C0.66 0.33 1.32 0.66 2 1 C-0.64 3.64 -3.28 6.28 -6 9 C-6.66 8.67 -7.32 8.34 -8 8 C-8 7.01 -8 6.02 -8 5 C-5.36740403 2.58085776 -3.40571201 1.13523734 0 0 Z M-11 7 C-10.34 7.33 -9.68 7.66 -9 8 C-10.98 8.99 -10.98 8.99 -13 10 C-12.34 9.01 -11.68 8.02 -11 7 Z " fill="#6D2D2D" transform="translate(641,673)"/>
<path d="M0 0 C0.99 0.33 1.98 0.66 3 1 C0.73243277 2.65050138 -1.53878961 4.29550028 -3.8125 5.9375 C-4.45509766 6.40607422 -5.09769531 6.87464844 -5.75976562 7.35742188 C-6.38173828 7.80537109 -7.00371094 8.25332031 -7.64453125 8.71484375 C-8.21534424 9.12855225 -8.78615723 9.54226074 -9.37426758 9.96850586 C-11 11 -11 11 -14 12 C-12.4696315 7.78911027 -9.71720859 6.11068254 -6.0625 3.6875 C-5.00160156 2.96949219 -3.94070312 2.25148438 -2.84765625 1.51171875 C-1.43806641 0.76341797 -1.43806641 0.76341797 0 0 Z " fill="#722F2F" transform="translate(199,102)"/>
<path d="M0 0 C1.32 0.66 2.64 1.32 4 2 C2.68 4.31 1.36 6.62 0 9 C-0.99 9 -1.98 9 -3 9 C-3 7.02 -3 5.04 -3 3 C-2.34 3 -1.68 3 -1 3 C-0.67 2.01 -0.34 1.02 0 0 Z " fill="#5B2525" transform="translate(745,525)"/>
<path d="M0 0 C-2.78748519 1.67373751 -5.58064427 3.33776267 -8.375 5 C-9.1690625 5.47695312 -9.963125 5.95390625 -10.78125 6.4453125 C-11.92207031 7.12207031 -11.92207031 7.12207031 -13.0859375 7.8125 C-13.7876709 8.23144531 -14.4894043 8.65039062 -15.21240234 9.08203125 C-17 10 -17 10 -19 10 C-19 9.34 -19 8.68 -19 8 C-16.515625 6.34375 -16.515625 6.34375 -13.25 4.5 C-12.18265625 3.8915625 -11.1153125 3.283125 -10.015625 2.65625 C-8.52289063 1.83640625 -8.52289063 1.83640625 -7 1 C-6.27296875 0.5771875 -5.5459375 0.154375 -4.796875 -0.28125 C-3 -1 -3 -1 0 0 Z " fill="#773838" transform="translate(231,85)"/>
<path d="M0 0 C0 0.99 0 1.98 0 3 C-1.26418246 3.69965443 -2.53665402 4.38434763 -3.8125 5.0625 C-4.52019531 5.44535156 -5.22789062 5.82820312 -5.95703125 6.22265625 C-8 7 -8 7 -11 6 C-11 5.34 -11 4.68 -11 4 C-9.5437455 3.32880451 -8.08492133 2.66318193 -6.625 2 C-5.81289063 1.62875 -5.00078125 1.2575 -4.1640625 0.875 C-2 0 -2 0 0 0 Z " fill="#6F3131" transform="translate(564,723)"/>
<path d="M0 0 C0.66 0.33 1.32 0.66 2 1 C-0.7881022 2.5066972 -3.58103958 4.00419804 -6.375 5.5 C-7.1690625 5.92925781 -7.963125 6.35851562 -8.78125 6.80078125 C-9.92207031 7.40986328 -9.92207031 7.40986328 -11.0859375 8.03125 C-11.7876709 8.40830078 -12.4894043 8.78535156 -13.21240234 9.17382812 C-15 10 -15 10 -17 10 C-17 9.34 -17 8.68 -17 8 C-13.12097289 5.15538012 -8.66024958 3.58972173 -4.20703125 1.8671875 C-2.00662743 1.0404557 -2.00662743 1.0404557 0 0 Z " fill="#502727" transform="translate(578,720)"/>
<path d="M0 0 C1.41702513 0.14230808 2.8336096 0.28900746 4.25 0.4375 C5.43335938 0.55931641 5.43335938 0.55931641 6.640625 0.68359375 C11.03037849 1.27228586 11.03037849 1.27228586 13 2 C13.33 2.99 13.66 3.98 14 5 C11.00446363 5.88855164 9.48360967 6.19605797 6.54296875 5.00390625 C5.76566406 4.52824219 4.98835937 4.05257812 4.1875 3.5625 C3.39730469 3.08941406 2.60710938 2.61632812 1.79296875 2.12890625 C1.20128906 1.75636719 0.60960937 1.38382812 0 1 C0 0.67 0 0.34 0 0 Z " fill="#6D3030" transform="translate(579,83)"/>
<path d="M0 0 C4.84688192 0.78175515 9.3766367 2.39844278 14 4 C11 6 11 6 8 6 C8 5.34 8 4.68 8 4 C5.69 4 3.38 4 1 4 C0.67 2.68 0.34 1.36 0 0 Z " fill="#6C2A2A" transform="translate(275,735)"/>
<path d="M0 0 C0.33 0.66 0.66 1.32 1 2 C0.07421875 4.4609375 0.07421875 4.4609375 -1.3125 7.375 C-1.76238281 8.33148438 -2.21226563 9.28796875 -2.67578125 10.2734375 C-3.76868585 12.52372485 -4.87278739 14.7667431 -6 17 C-6.66 17 -7.32 17 -8 17 C-6.3341708 10.83643195 -3.12194714 5.51740344 0 0 Z " fill="#4D2727" transform="translate(83,226)"/>
<path d="M0 0 C0.33 0 0.66 0 1 0 C0.67 6.6 0.34 13.2 0 20 C-0.66 20 -1.32 20 -2 20 C-2.33 20.66 -2.66 21.32 -3 22 C-2.68905914 19.45813394 -2.37629464 16.91651402 -2.0625 14.375 C-1.97548828 13.66214844 -1.88847656 12.94929688 -1.79882812 12.21484375 C-1.29217395 8.12408039 -0.7110957 4.06157365 0 0 Z " fill="#804646" transform="translate(763,442)"/>
<path d="M0 0 C3.21764451 4.82646677 4.36261136 10.19821824 4 16 C3.01 16 2.02 16 1 16 C0.67 10.72 0.34 5.44 0 0 Z " fill="#612525" transform="translate(750,281)"/>
<path d="M0 0 C6.6 0.33 13.2 0.66 20 1 C20 1.66 20 2.32 20 3 C20.66 3.33 21.32 3.66 22 4 C19.45813394 3.68905914 16.91651402 3.37629464 14.375 3.0625 C13.66214844 2.97548828 12.94929688 2.88847656 12.21484375 2.79882812 C8.12408039 2.29217395 4.06157365 1.7110957 0 1 C0 0.67 0 0.34 0 0 Z " fill="#804646" transform="translate(449,41)"/>
<path d="M0 0 C0.66 0.33 1.32 0.66 2 1 C-0.50328066 5.47014404 -3.1108544 9.76946537 -6 14 C-6.75 12.375 -6.75 12.375 -7 10 C-5.25 7 -5.25 7 -3 4 C-2.4225 3.21625 -1.845 2.4325 -1.25 1.625 C-0.8375 1.08875 -0.425 0.5525 0 0 Z " fill="#6E2E2E" transform="translate(692,617)"/>
<path d="M0 0 C0.66 0.33 1.32 0.66 2 1 C-2.01254885 4.51098025 -6.20983041 6.76537994 -11 9 C-11.66 8.34 -12.32 7.68 -13 7 C-10.88002166 5.80266012 -8.75486324 4.61701287 -6.625 3.4375 C-6.02171875 3.09525391 -5.4184375 2.75300781 -4.796875 2.40039062 C-3.23021759 1.53872905 -1.61709138 0.76281817 0 0 Z " fill="#743333" transform="translate(577,715)"/>
<path d="M0 0 C0.33 0.99 0.66 1.98 1 3 C-1.64 5.64 -4.28 8.28 -7 11 C-7.66 10.34 -8.32 9.68 -9 9 C-8.06725891 7.87105124 -7.12859878 6.74699124 -6.1875 5.625 C-5.66542969 4.99851563 -5.14335937 4.37203125 -4.60546875 3.7265625 C-3 2 -3 2 0 0 Z " fill="#773A3A" transform="translate(164,129)"/>
<path d="M0 0 C2.46800047 1.15173355 4.04783565 2.04783565 6 4 C6.825 4.309375 7.65 4.61875 8.5 4.9375 C11 6 11 6 13 9 C3.12761506 6.21548117 3.12761506 6.21548117 0 2 C0 1.34 0 0.68 0 0 Z " fill="#703131" transform="translate(535,59)"/>
<path d="M0 0 C-4.455 0.495 -4.455 0.495 -9 1 C-9 1.66 -9 2.32 -9 3 C-11.97 3 -14.94 3 -18 3 C-17.67 2.34 -17.34 1.68 -17 1 C-14.19921875 0.33203125 -14.19921875 0.33203125 -10.6875 -0.1875 C-8.96080078 -0.45626953 -8.96080078 -0.45626953 -7.19921875 -0.73046875 C-4 -1 -4 -1 0 0 Z " fill="#7A3D3D" transform="translate(466,755)"/>
<path d="M0 0 C11.52164009 -0.55353075 11.52164009 -0.55353075 17 3 C13.12813552 4.44715727 10.1767672 3.5441918 6.25 2.5625 C5.07953125 2.27503906 3.9090625 1.98757812 2.703125 1.69140625 C1.81109375 1.46324219 0.9190625 1.23507813 0 1 C0 0.67 0 0.34 0 0 Z " fill="#7C3F3F" transform="translate(474,45)"/>
<path d="M0 0 C0 0.66 0 1.32 0 2 C-5.41176471 6 -5.41176471 6 -8 6 C-8.33 5.01 -8.66 4.02 -9 3 C-5.92807025 0.26939578 -4.09590633 -0.34132553 0 0 Z " fill="#6D2D2D" transform="translate(211,95)"/>
<path d="M0 0 C-2.12232979 1.17176518 -4.24757791 2.33754785 -6.375 3.5 C-6.97828125 3.83386719 -7.5815625 4.16773437 -8.203125 4.51171875 C-12.7734375 7 -12.7734375 7 -15 7 C-15 6.34 -15 5.68 -15 5 C-13.06891037 3.96709159 -11.129882 2.94901328 -9.1875 1.9375 C-8.10855469 1.36902344 -7.02960938 0.80054687 -5.91796875 0.21484375 C-3 -1 -3 -1 0 0 Z " fill="#763535" transform="translate(246,77)"/>
<path d="M0 0 C1.41791408 0.45445964 2.83428046 0.91374944 4.25 1.375 C5.43335938 1.75785156 5.43335938 1.75785156 6.640625 2.1484375 C8.86627958 2.95173667 10.90931672 3.89711662 13 5 C9.49270578 6.16909807 7.55692677 5.85056945 4 5 C3.67 4.34 3.34 3.68 3 3 C2.01 2.67 1.02 2.34 0 2 C0 1.34 0 0.68 0 0 Z " fill="#612525" transform="translate(518,53)"/>
<path d="M0 0 C0.33 0 0.66 0 1 0 C1 1.65 1 3.3 1 5 C0.01 5.33 -0.98 5.66 -2 6 C-3.10636395 8.39068734 -3.10636395 8.39068734 -4 11 C-4.99 12.485 -4.99 12.485 -6 14 C-6.66 13.67 -7.32 13.34 -8 13 C-6.69181533 10.83061859 -5.37874076 8.6644848 -4.0625 6.5 C-3.68931641 5.87996094 -3.31613281 5.25992188 -2.93164062 4.62109375 C-1.9818016 3.06370003 -0.99386689 1.5296725 0 0 Z " fill="#793B3B" transform="translate(719,576)"/>
<path d="M0 0 C0.66 0 1.32 0 2 0 C1.71812064 1.79323253 1.4241719 3.58457126 1.125 5.375 C0.96257813 6.37273437 0.80015625 7.37046875 0.6328125 8.3984375 C0 11 0 11 -2 13 C-2.05416188 11.39620659 -2.09286638 9.79188594 -2.125 8.1875 C-2.14820313 7.29417969 -2.17140625 6.40085937 -2.1953125 5.48046875 C-2 3 -2 3 0 0 Z " fill="#743434" transform="translate(61,288)"/>
<path d="M0 0 C0.66 0.33 1.32 0.66 2 1 C-1.3 4.3 -4.6 7.6 -8 11 C-8.66 10.67 -9.32 10.34 -10 10 C-8.90033225 8.70450101 -7.79508199 7.41373929 -6.6875 6.125 C-6.07261719 5.40570313 -5.45773438 4.68640625 -4.82421875 3.9453125 C-3 2 -3 2 0 0 Z " fill="#6C2323" transform="translate(154,139)"/>
<path d="M0 0 C0 0.66 0 1.32 0 2 C-4.29 2 -8.58 2 -13 2 C-8.7920942 -0.80527053 -4.85771358 -1.68151624 0 0 Z " fill="#743434" transform="translate(497,749)"/>
<path d="M0 0 C0.33 0 0.66 0 1 0 C1.25 6.625 1.25 6.625 -1 10 C-1.38499891 11.65549531 -1.72793135 13.3222433 -2 15 C-2.66 15 -3.32 15 -4 15 C-3.52396226 12.87429688 -3.04407402 10.74945573 -2.5625 8.625 C-2.29566406 7.44164062 -2.02882813 6.25828125 -1.75390625 5.0390625 C-1 2 -1 2 0 0 Z " fill="#804747" transform="translate(754,490)"/>
<path d="M0 0 C1.53735983 3.07471966 2.44667892 5.24707137 3.1875 8.5 C3.36667969 9.2528125 3.54585937 10.005625 3.73046875 10.78125 C4.01801942 13.14833379 3.72248395 14.74544015 3 17 C3 16.34 3 15.68 3 15 C2.34 15 1.68 15 1 15 C0.67 10.05 0.34 5.1 0 0 Z " fill="#7E4444" transform="translate(52,467)"/>
<path d="M0 0 C0.66 0.33 1.32 0.66 2 1 C-0.31 3.97 -2.62 6.94 -5 10 C-5.33 9.01 -5.66 8.02 -6 7 C-4.78515625 5.17578125 -4.78515625 5.17578125 -3.0625 3.3125 C-2.49660156 2.68988281 -1.93070312 2.06726563 -1.34765625 1.42578125 C-0.90292969 0.95527344 -0.45820312 0.48476562 0 0 Z " fill="#743333" transform="translate(128,167)"/>
<path d="M0 0 C0 3.7794561 -1.04679411 5.79116175 -3 9 C-5.109375 9.6796875 -5.109375 9.6796875 -7 10 C-6.02223933 8.51990357 -5.0427506 7.04094856 -4.0625 5.5625 C-3.51722656 4.73878906 -2.97195313 3.91507813 -2.41015625 3.06640625 C-1 1 -1 1 0 0 Z " fill="#783939" transform="translate(701,605)"/>
<path d="M0 0 C0.33 0.99 0.66 1.98 1 3 C-0.4375 5.6875 -0.4375 5.6875 -2 8 C-2.99 7.67 -3.98 7.34 -5 7 C-3.70700306 4.11562221 -2.34058637 2.12780579 0 0 Z " fill="#5B2525" transform="translate(69,264)"/>
<path d="M0 0 C-9.41002278 3.44419134 -9.41002278 3.44419134 -14 3 C-12.62689339 1.02615924 -11.46809897 0.11409912 -9.125 -0.45703125 C-5.59968163 -0.9430586 -3.43980157 -1.14660052 0 0 Z " fill="#7C3F3F" transform="translate(315,51)"/>
<path d="M0 0 C-4.90373335 3.26915556 -7.05053549 4.22450809 -13 4 C-8.62615587 1.08410391 -5.29457529 -0.30254716 0 0 Z " fill="#7B3F3F" transform="translate(546,732)"/>
<path d="M0 0 C0.33 0 0.66 0 1 0 C1.28571429 7.42857143 1.28571429 7.42857143 -1 11 C-1.66 10.67 -2.32 10.34 -3 10 C-2.01 6.7 -1.02 3.4 0 0 Z " fill="#7D4343" transform="translate(745,518)"/>
<path d="M0 0 C4.29 0.99 8.58 1.98 13 3 C13 3.33 13 3.66 13 4 C8.71 3.67 4.42 3.34 0 3 C0 2.01 0 1.02 0 0 Z " fill="#844D4D" transform="translate(304,744)"/>
<path d="M0 0 C0.99 0 1.98 0 3 0 C3.33 4.29 3.66 8.58 4 13 C2.4005386 9.80107719 1.57404764 7.64537424 0.875 4.25 C0.70742188 3.45078125 0.53984375 2.6515625 0.3671875 1.828125 C0.24601563 1.22484375 0.12484375 0.6215625 0 0 Z " fill="#844D4D" transform="translate(751,297)"/>
<path d="M0 0 C0.33 0.99 0.66 1.98 1 3 C-3.75 7.875 -3.75 7.875 -6 9 C-4.47291037 5.56404834 -2.40072955 2.88087546 0 0 Z " fill="#5C2525" transform="translate(125,167)"/>
<path d="M0 0 C-2.64 1.98 -5.28 3.96 -8 6 C-8 4.68 -8 3.36 -8 2 C-3.82258065 -1.27419355 -3.82258065 -1.27419355 0 0 Z " fill="#783A3A" transform="translate(177,122)"/>
<path d="M0 0 C0.8125 1.625 0.8125 1.625 1 4 C-0.46818136 6.24609835 -2.15852858 8.02378677 -4 10 C-4 5.75354935 -2.18249194 3.61475228 0 0 Z " fill="#502727" transform="translate(725,574)"/>
<path d="M0 0 C0.33 0 0.66 0 1 0 C1.25532751 3.06393013 1.21861333 4.63233212 -0.375 7.3125 C-1.179375 8.1478125 -1.179375 8.1478125 -2 9 C-2.66 9 -3.32 9 -4 9 C-2.94124926 5.59687262 -1.99097846 2.98646769 0 0 Z " fill="#763636" transform="translate(724,567)"/>
<path d="M0 0 C0.99 0.33 1.98 0.66 3 1 C0.36 2.98 -2.28 4.96 -5 7 C-4 3 -4 3 -2.125 1.1875 C-1.42375 0.795625 -0.7225 0.40375 0 0 Z " fill="#733131" transform="translate(182,114)"/>
<path d="M0 0 C0.66 0.33 1.32 0.66 2 1 C-0.475 5.455 -0.475 5.455 -3 10 C-4 7 -4 7 -2.625 3.875 C-1 1 -1 1 0 0 Z " fill="#7B3D3D" transform="translate(94,216)"/>
<path d="M0 0 C0.33 0 0.66 0 1 0 C1 1.65 1 3.3 1 5 C-0.32 5.33 -1.64 5.66 -3 6 C-2.42655063 3.13275314 -2.1385485 2.1385485 0 0 Z " fill="#692A2A" transform="translate(105,196)"/>
<path d="M0 0 C0.66 0.33 1.32 0.66 2 1 C0.35 2.98 -1.3 4.96 -3 7 C-3.66 6.34 -4.32 5.68 -5 5 C-3.35 3.35 -1.7 1.7 0 0 Z " fill="#763737" transform="translate(143,150)"/>
<path d="M0 0 C-2.64 1.65 -5.28 3.3 -8 5 C-8 4.01 -8 3.02 -8 2 C-3.71900826 -1.23966942 -3.71900826 -1.23966942 0 0 Z " fill="#773737" transform="translate(202,103)"/>
<path d="M0 0 C2.64 0 5.28 0 8 0 C8.33 0.66 8.66 1.32 9 2 C6.75 2.6875 6.75 2.6875 4 3 C1.6875 1.5625 1.6875 1.5625 0 0 Z " fill="#753939" transform="translate(553,70)"/>
</svg>
